<svg viewBox="0 0 20 21" fill="none" xmlns="http://www.w3.org/2000/svg">
<mask id="mask0_1_7287" style="mask-type:alpha" maskUnits="userSpaceOnUse" x="0" y="0" width="20" height="21">
<circle cx="10" cy="10.5" r="10" fill="#C4C4C4"/>
</mask>
<g mask="url(#mask0_1_7287)">
<path d="M-5 0.569336H32.7358V20.4303H-5V0.569336Z" fill="white"/>
<path d="M-5 0.569336H32.7358V2.09713H-5V0.569336ZM-5 3.62493H32.7358V5.15273H-5V3.62493ZM-5 6.6804H32.7358V8.2082H-5V6.6804ZM-5 9.736H32.7358V11.2638H-5V9.736ZM-5 12.7915H32.7358V14.3193H-5V12.7915ZM-5 15.8471H32.7358V17.3749H-5V15.8471ZM-5 18.9025H32.7358V20.4303H-5V18.9025Z" fill="#B22234"/>
<path d="M-5 0.569336H10.0943V11.2637L-5 11.2638V0.569336Z" fill="#3C3B6E"/>
<path d="M-4.29082 1.43751L-3.9312 1.69877L-4.06855 2.12154L-3.70906 1.86028L-3.34943 2.12154L-3.48679 1.69877L-3.1273 1.43751H-3.5717L-3.70906 1.01487L-3.84642 1.43751H-4.29082ZM-1.7883 1.43751L-1.42881 1.69877L-1.56616 2.12154L-1.20654 1.86028L-0.846919 2.12154L-0.984278 1.69877L-0.624781 1.43751H-1.06918L-1.20654 1.01487L-1.3439 1.43751H-1.7883ZM0.714213 1.43751L1.07371 1.69877L0.936351 2.12154L1.29597 1.86028L1.65547 2.12154L1.51811 1.69877L1.87773 1.43751H1.43333L1.29597 1.01487L1.15862 1.43751H0.714213ZM3.21673 1.43751L3.57623 1.69877L3.43887 2.12154L3.79849 1.86028L4.15799 2.12154L4.02063 1.69877L4.38025 1.43751H3.93572L3.79849 1.01487L3.66113 1.43751H3.21673ZM5.71912 1.43751L6.07874 1.69877L5.94138 2.12154L6.30088 1.86028L6.6605 2.12154L6.52314 1.69877L6.88264 1.43751H6.43824L6.30088 1.01487L6.16352 1.43751H5.71912ZM8.22163 1.43751L8.58113 1.69877L8.44377 2.12154L8.80339 1.86028L9.16289 2.12154L9.02553 1.69877L9.38515 1.43751H8.94075L8.80339 1.01487L8.66603 1.43751H8.22163ZM-3.03962 2.51009L-2.68 2.77135L-2.81736 3.19399L-2.45774 2.93273L-2.09824 3.19399L-2.2356 2.77135L-1.87598 2.51009H-2.3205L-2.45774 2.08732L-2.59509 2.51009H-3.03962ZM-0.537108 2.51009L-0.177485 2.77135L-0.314843 3.19399L0.0446529 2.93273L0.404276 3.19399L0.266918 2.77135L0.626414 2.51009H0.182012L0.0446529 2.08732L-0.0927052 2.51009H-0.537108ZM1.96541 2.51009L2.32503 2.77135L2.18767 3.19399L2.54717 2.93273L2.90679 3.19399L2.76943 2.77135L3.12893 2.51009H2.68453L2.54717 2.08732L2.40981 2.51009H1.96541ZM4.46792 2.51009L4.82742 2.77135L4.69006 3.19399L5.04968 2.93273L5.40918 3.19399L5.27182 2.77135L5.63144 2.51009H5.18704L5.04968 2.08732L4.91233 2.51009H4.46792ZM6.97031 2.51009L7.32994 2.77135L7.19258 3.19399L7.55207 2.93273L7.9117 3.19399L7.77434 2.77135L8.13383 2.51009H7.68943L7.55207 2.08732L7.41484 2.51009H6.97031ZM-4.29082 3.58254L-3.9312 3.8438L-4.06855 4.26657L-3.70906 4.00531L-3.34943 4.26657L-3.48679 3.8438L-3.1273 3.58254H-3.5717L-3.70906 3.1599L-3.84642 3.58254H-4.29082ZM-1.7883 3.58254L-1.42881 3.8438L-1.56616 4.26657L-1.20654 4.00531L-0.846919 4.26657L-0.984278 3.8438L-0.624781 3.58254H-1.06918L-1.20654 3.1599L-1.3439 3.58254H-1.7883ZM0.714213 3.58254L1.07371 3.8438L0.936351 4.26657L1.29597 4.00531L1.65547 4.26657L1.51811 3.8438L1.87773 3.58254H1.43333L1.29597 3.1599L1.15862 3.58254H0.714213ZM3.21673 3.58254L3.57623 3.8438L3.43887 4.26657L3.79849 4.00531L4.15799 4.26657L4.02063 3.8438L4.38025 3.58254H3.93572L3.79849 3.1599L3.66113 3.58254H3.21673ZM5.71912 3.58254L6.07874 3.8438L5.94138 4.26657L6.30088 4.00531L6.6605 4.26657L6.52314 3.8438L6.88264 3.58254H6.43824L6.30088 3.1599L6.16352 3.58254H5.71912ZM8.22163 3.58254L8.58113 3.8438L8.44377 4.26657L8.80339 4.00531L9.16289 4.26657L9.02553 3.8438L9.38515 3.58254H8.94075L8.80339 3.1599L8.66603 3.58254H8.22163ZM-3.00868 4.65865L-2.64918 4.9199L-2.78642 5.34255L-2.42692 5.08129L-2.0673 5.34255L-2.20465 4.91978L-1.84516 4.65865H-2.28956L-2.42692 4.23588L-2.56428 4.65865H-3.00868ZM-0.506164 4.65865L-0.146667 4.9199L-0.284026 5.34255L0.0755968 5.08129L0.435093 5.34255L0.297735 4.91978L0.657358 4.65865H0.212955L0.0755968 4.23588L-0.0617619 4.65865H-0.506164ZM1.99635 4.65865L2.35585 4.9199L2.21849 5.34255L2.57811 5.08129L2.93761 5.34255L2.80025 4.91978L3.15987 4.65865H2.71534L2.57811 4.23588L2.44075 4.65865H1.99635ZM4.49874 4.65865L4.85836 4.9199L4.721 5.34255L5.0805 5.08129L5.44012 5.34255L5.30276 4.91978L5.66226 4.65865H5.21786L5.0805 4.23588L4.94314 4.65865H4.49874ZM7.00126 4.65865L7.36075 4.9199L7.22339 5.34255L7.58302 5.08129L7.94251 5.34255L7.80515 4.91978L8.16478 4.65865H7.72038L7.58302 4.23588L7.44566 4.65865H7.00126ZM-4.25283 5.72217L-3.89321 5.9833L-4.03057 6.40607L-3.67107 6.14481L-3.31145 6.40607L-3.44881 5.9833L-3.08931 5.72217H-3.53371L-3.67107 5.2994L-3.80843 5.72217H-4.25283ZM-1.75032 5.72217L-1.39082 5.9833L-1.52818 6.40607L-1.16855 6.14481L-0.809057 6.40607L-0.94629 5.9833L-0.586793 5.72217H-1.0312L-1.16855 5.2994L-1.30591 5.72217H-1.75032ZM0.7522 5.72217L1.1117 5.9833L0.974339 6.40607L1.33396 6.14481L1.69346 6.40607L1.5561 5.9833L1.91572 5.72217H1.47132L1.33396 5.2994L1.1966 5.72217H0.7522ZM3.25459 5.72217L3.61421 5.9833L3.47685 6.40607L3.83635 6.14481L4.19597 6.40607L4.05861 5.9833L4.41824 5.72217H3.97371L3.83635 5.2994L3.69912 5.72217H3.25459ZM5.7571 5.72217L6.1166 5.9833L5.97937 6.40607L6.33887 6.14481L6.69849 6.40607L6.56113 5.9833L6.92063 5.72217H6.47622L6.33887 5.2994L6.20151 5.72217H5.7571ZM8.25962 5.72217L8.61912 5.9833L8.48176 6.40607L8.84138 6.14481L9.20088 6.40607L9.06352 5.9833L9.42314 5.72217H8.97874L8.84138 5.2994L8.70402 5.72217H8.25962ZM-4.22931 7.83311L-3.86981 8.09437L-4.00717 8.51714L-3.64755 8.25588L-3.28805 8.51714L-3.42541 8.09437L-3.06579 7.83311H-3.51019L-3.64755 7.41047L-3.78491 7.83311H-4.22931ZM-1.72692 7.83311L-1.3673 8.09437L-1.50465 8.51714L-1.14516 8.25588L-0.785535 8.51714L-0.922894 8.09437L-0.563397 7.83311H-1.0078L-1.14516 7.41047L-1.28252 7.83311H-1.72692ZM0.775597 7.83311L1.13509 8.09437L0.99786 8.51714L1.35736 8.25588L1.71698 8.51714L1.57962 8.09437L1.93912 7.83311H1.49472L1.35736 7.41047L1.22 7.83311H0.775597ZM3.27811 7.83311L3.63761 8.09437L3.50025 8.51714L3.85987 8.25588L4.21937 8.51714L4.08214 8.09437L4.44163 7.83311H3.99723L3.85987 7.41047L3.72251 7.83311H3.27811ZM5.7805 7.83311L6.14012 8.09437L6.00277 8.51714L6.36226 8.25588L6.72188 8.51714L6.58453 8.09437L6.94415 7.83311H6.49962L6.36226 7.41047L6.22503 7.83311H5.7805ZM8.28302 7.83311L8.64251 8.09437L8.50528 8.51714L8.86478 8.25588L9.2244 8.51714L9.08704 8.09437L9.44654 7.83311H9.00214L8.86478 7.41047L8.72742 7.83311H8.28302ZM-4.25987 9.96896L-3.90038 10.2302L-4.03774 10.653L-3.67811 10.3917L-3.31862 10.653L-3.45598 10.2302L-3.09635 9.96896H-3.54088L-3.67811 9.54632L-3.81547 9.96896H-4.25987ZM-1.75748 9.96896L-1.39786 10.2302L-1.53522 10.653L-1.17572 10.3917L-0.816101 10.653L-0.95346 10.2302L-0.593963 9.96896H-1.03837L-1.17572 9.54632L-1.31308 9.96896H-1.75748ZM0.74503 9.96896L1.10453 10.2302L0.967294 10.653L1.32679 10.3917L1.68641 10.653L1.54906 10.2302L1.90855 9.96896H1.46415L1.32679 9.54632L1.18943 9.96896H0.74503ZM3.24755 9.96896L3.60704 10.2302L3.46968 10.653L3.82931 10.3917L4.1888 10.653L4.05157 10.2302L4.41107 9.96896H3.96667L3.82931 9.54632L3.69195 9.96896H3.24755ZM5.74994 9.96896L6.10956 10.2302L5.9722 10.653L6.3317 10.3917L6.69132 10.653L6.55396 10.2302L6.91358 9.96896H6.46905L6.3317 9.54632L6.19446 9.96896H5.74994ZM8.25245 9.96896L8.61195 10.2302L8.47471 10.653L8.83421 10.3917L9.19383 10.653L9.05648 10.2302L9.41597 9.96896H8.97157L8.83421 9.54632L8.69685 9.96896H8.25245ZM-3.00126 6.76708L-2.64176 7.02833L-2.77899 7.45097L-2.4195 7.18972L-2.05987 7.45097L-2.19723 7.02833L-1.83774 6.76708H-2.28214L-2.4195 6.34431L-2.55686 6.76708H-3.00126ZM-0.498743 6.76708L-0.139246 7.02833L-0.276605 7.45097L0.0830178 7.18972L0.442515 7.45097L0.305282 7.02833L0.664779 6.76708H0.220376L0.0830178 6.34431L-0.0543404 6.76708H-0.498743ZM2.00377 6.76708L2.36327 7.02833L2.22591 7.45097L2.58553 7.18972L2.94503 7.45097L2.80767 7.02833L3.16729 6.76708H2.72289L2.58553 6.34431L2.44817 6.76708H2.00377ZM4.50616 6.76708L4.86578 7.02833L4.72843 7.45097L5.08792 7.18972L5.44755 7.45097L5.31019 7.02833L5.66968 6.76708H5.22528L5.08792 6.34431L4.95056 6.76708H4.50616ZM7.00868 6.76708L7.36817 7.02833L7.23082 7.45097L7.59044 7.18972L7.94993 7.45097L7.8127 7.02833L8.1722 6.76708H7.7278L7.59044 6.34431L7.45308 6.76708H7.00868ZM-3.00868 8.89953L-2.64906 9.16079L-2.78642 9.58355L-2.42692 9.3223L-2.0673 9.58355L-2.20465 9.16079L-1.84516 8.89953H-2.28956L-2.42692 8.47689L-2.56428 8.89953H-3.00868ZM-0.506164 8.89953L-0.146667 9.16079L-0.284026 9.58355L0.0755968 9.3223L0.435219 9.58355L0.297861 9.16079L0.657358 8.89953H0.212955L0.0755968 8.47689L-0.0617619 8.89953H-0.506164ZM1.99635 8.89953L2.35585 9.16079L2.21849 9.58355L2.57811 9.3223L2.93761 9.58355L2.80025 9.16079L3.15987 8.89953H2.71547L2.57811 8.47689L2.44075 8.89953H1.99635ZM4.49874 8.89953L4.85836 9.16079L4.721 9.58355L5.0805 9.3223L5.44012 9.58355L5.30276 9.16079L5.66226 8.89953H5.21786L5.0805 8.47689L4.94314 8.89953H4.49874ZM7.00126 8.89953L7.36075 9.16079L7.22339 9.58355L7.58302 9.3223L7.94251 9.58355L7.80528 9.16079L8.16478 8.89953H7.72038L7.58302 8.47689L7.44566 8.89953H7.00126Z" fill="white"/>
</g>
</svg>
