<svg xmlns="http://www.w3.org/2000/svg" version="1.1" xmlns:xlink="http://www.w3.org/1999/xlink" xmlns:svgjs="http://svgjs.com/svgjs" viewBox="0 0 512 512" style="enable-background:new 0 0 512 512" xml:space="preserve" class="">

  <path d="M437.019,74.98C388.667,26.629,324.38,0,256,0C187.619,0,123.331,26.629,74.98,74.98C26.628,123.332,0,187.62,0,256
        s26.628,132.667,74.98,181.019C123.332,485.371,187.619,512,256,512c68.38,0,132.667-26.629,181.019-74.981
        C485.371,388.667,512,324.38,512,256S485.371,123.333,437.019,74.98z M256,482C131.383,482,30,380.617,30,256S131.383,30,256,30
        s226,101.383,226,226S380.617,482,256,482z" fill="#000000" data-original="#000000" class=""></path>
</svg>