<svg width="36" height="36" viewBox="0 0 36 36" fill="none" xmlns="http://www.w3.org/2000/svg">
<path d="M0 18C0 8.05888 8.05888 0 18 0C27.9411 0 36 8.05888 36 18C36 27.9411 27.9411 36 18 36C8.05888 36 0 27.9411 0 18Z" fill="#D57FFF"/>
<path d="M25.2347 15.9938C25.1389 15.6993 24.8777 15.4908 24.5699 15.4629L20.371 15.0817L18.7116 11.1967C18.5891 10.9113 18.3103 10.7271 18 10.7271C17.6898 10.7271 17.4109 10.9113 17.2891 11.1967L15.6297 15.0817L11.4302 15.4629C11.1224 15.4913 10.8617 15.6998 10.7654 15.9938C10.6696 16.2883 10.758 16.6114 10.9909 16.8156L14.1649 19.5987L13.229 23.7205C13.1605 24.0236 13.2782 24.337 13.5296 24.5188C13.6648 24.617 13.8236 24.666 13.983 24.666C14.1199 24.666 14.257 24.6296 14.3794 24.5564L18 22.3915L21.62 24.5564C21.8856 24.7151 22.2195 24.7006 22.4704 24.5188C22.7219 24.337 22.8395 24.0236 22.7711 23.7205L21.8352 19.5987L25.0092 16.8156C25.2419 16.6114 25.3305 16.289 25.2347 15.9938Z" fill="white"/>
</svg>
