<svg width="13" height="13" viewBox="0 0 13 13" fill="none" xmlns="http://www.w3.org/2000/svg">
<g clip-path="url(#clip0_330_763)">
<path fill-rule="evenodd" clip-rule="evenodd" d="M7.63453 0.662412C7.62676 0.671339 7.57706 0.745463 7.52426 0.827121C7.18795 1.34659 6.72136 1.97331 6.22885 2.56701C6.12147 2.6965 6.10433 2.71503 6.09157 2.71535C6.08447 2.71551 5.84485 2.42619 5.66879 2.20486C5.2855 1.72296 4.96261 1.27994 4.69248 0.865288C4.58623 0.702183 4.56787 0.678651 4.5469 0.678651C4.4923 0.678651 3.51377 1.51681 2.90933 2.0813C2.81942 2.16528 2.81928 2.16475 2.94713 2.24223C3.62077 2.65054 5.1337 3.7978 5.08674 3.86469C4.99278 3.99854 3.42135 5.56669 3.23312 5.71442L3.20721 5.73477L3.18763 5.71082C3.17685 5.69765 3.0907 5.59351 2.99615 5.47942C2.46288 4.83584 1.96496 4.15873 1.62897 3.62022C1.53435 3.46858 1.53072 3.46431 1.50677 3.47711C1.42976 3.51823 0.0539814 5.08754 0.0245113 5.16786C0.0177784 5.18623 0.0297564 5.19723 0.117813 5.25355C0.540449 5.52386 1.03773 5.87991 1.48918 6.23548C1.76088 6.4495 2.07536 6.70896 2.07522 6.71907C2.07414 6.79329 0.70824 7.82155 0.108514 8.19962C0.0143284 8.259 0.00196954 8.26943 0.00170916 8.28983C0.00112329 8.33729 1.46054 9.9998 1.50275 9.9998C1.51974 9.9998 1.5333 9.98152 1.6198 9.8421C1.95369 9.30368 2.45667 8.62065 3.04108 7.91197C3.11894 7.81752 3.1907 7.73467 3.20054 7.72779C3.22052 7.71385 3.26895 7.75735 3.7538 8.22404C4.16716 8.62192 5.05974 9.53258 5.09221 9.58957C5.10284 9.60827 5.08362 9.62586 4.7937 9.86228C4.11056 10.4196 3.47094 10.8835 2.91232 11.2268C2.78157 11.3072 2.77977 11.2965 2.95137 11.4585C3.42474 11.9057 4.42329 12.774 4.51078 12.8146C4.53758 12.8271 4.52192 12.8468 4.68451 12.5948C4.98682 12.1261 5.41524 11.5485 5.89455 10.9635C5.99339 10.8429 6.08014 10.7418 6.08724 10.7391C6.14022 10.7189 7.00519 11.8394 7.42913 12.4774C7.52237 12.6178 7.6053 12.742 7.61334 12.7535C7.64612 12.8002 7.8052 12.6765 8.55247 12.023C9.35909 11.3177 9.38255 11.2919 9.27716 11.2265C8.97519 11.0395 8.48702 10.7041 8.16192 10.4604C7.67851 10.0982 7.10176 9.63005 7.10176 9.60006C7.10176 9.5517 8.16719 8.47121 8.78727 7.89068C8.89083 7.79368 8.97564 7.71115 8.97564 7.70729C8.97564 7.69309 8.53466 7.18826 8.25694 6.8844L8.11017 6.7239L8.24762 6.57319C8.43771 6.36484 8.63783 6.13918 8.81733 5.9308C9.00204 5.71635 8.95833 5.71901 9.16767 5.90953C9.39913 6.12022 9.69151 6.37772 9.90783 6.56159C10.116 6.73841 10.1122 6.71272 9.95016 6.84944C9.66216 7.09253 8.9849 7.69484 8.9849 7.70792C8.9849 7.71083 9.02312 7.75893 9.06993 7.81487C9.67903 8.54357 10.2011 9.24673 10.5575 9.8181C10.6735 10.0041 10.6646 9.99916 10.7407 9.91975C11.2093 9.43103 12.1743 8.32246 12.1745 8.27261C12.1746 8.26297 12.1186 8.22165 12.0237 8.16121C11.4599 7.80227 10.1195 6.78974 10.1195 6.72278C10.1195 6.6857 10.9514 6.03021 11.4481 5.67604C11.6365 5.54164 12.0838 5.24178 12.158 5.20021C12.2226 5.16389 12.2278 5.17476 12.0347 4.94101C11.6656 4.49418 11.0645 3.81576 10.7504 3.49157C10.6826 3.42155 10.6937 3.4132 10.5474 3.64409C10.1978 4.19585 9.76251 4.78937 9.2446 5.42043C9.04985 5.65776 8.98462 5.73277 8.97569 5.7295C8.9144 5.70699 7.11285 3.90984 7.08989 3.84833C7.08501 3.83532 7.60923 3.40791 7.9573 3.14112C8.43238 2.77693 8.83819 2.49467 9.30556 2.20323C9.35293 2.17368 9.37545 2.15387 9.37545 2.14188C9.37545 2.09883 8.37015 1.21479 7.78751 0.745491C7.65378 0.637784 7.65527 0.638592 7.63453 0.662412ZM6.20045 2.85235C6.40652 3.09624 6.86197 3.60976 7.01034 3.76548C7.08817 3.84709 7.09588 3.83236 6.87622 4.02064C6.5778 4.27644 6.11087 4.69373 6.104 4.7107C6.10122 4.71761 6.11126 4.72738 6.39947 4.99878C6.97462 5.5404 8.10146 6.68205 8.10146 6.7231C8.10146 6.74943 7.29917 7.57777 6.84616 8.01919C6.60776 8.25148 6.17716 8.65974 6.11392 8.71345L6.09346 8.73078L5.89139 8.54177C5.35943 8.04409 4.77007 7.45598 4.2714 6.92525L4.08211 6.72379L4.19236 6.60598C4.74682 6.01326 5.40528 5.35574 5.96022 4.84059C6.028 4.77768 6.08347 4.72107 6.08347 4.71478C6.08347 4.69678 5.74606 4.39112 5.32833 4.0307C5.21734 3.93494 5.12395 3.85243 5.1208 3.84734C5.11765 3.84225 5.17741 3.77028 5.2536 3.6874C5.45615 3.46707 5.68948 3.20416 5.89993 2.95907C6.11759 2.70568 6.08602 2.71689 6.20045 2.85235ZM3.36114 5.9152C3.5586 6.14395 3.75611 6.36686 3.92818 6.55523C4.10276 6.74636 4.09872 6.70382 3.95705 6.8594C3.76415 7.07119 3.5597 7.30167 3.38334 7.50609C3.18588 7.73499 3.23381 7.72858 3.04031 7.55218C2.80145 7.33441 2.55157 7.11393 2.31947 6.91613C2.06844 6.70218 2.06687 6.74699 2.33342 6.51889C2.57539 6.31182 2.89564 6.02847 3.08436 5.85447C3.15085 5.79317 3.20846 5.74485 3.21238 5.74708C3.2163 5.74931 3.28325 5.82497 3.36114 5.9152ZM6.2242 8.85076C6.41168 9.02112 6.70937 9.28392 6.89946 9.44697C7.09859 9.61776 7.09022 9.59212 6.98444 9.7077C6.79679 9.91271 6.45805 10.2943 6.29281 10.487C6.19652 10.5992 6.11237 10.6943 6.10588 10.6982C6.08891 10.7084 6.06877 10.6877 5.87769 10.4638C5.69337 10.2479 5.40064 9.91822 5.22483 9.72857C5.16432 9.66331 5.11619 9.60605 5.11788 9.60144C5.11956 9.59667 5.20465 9.52119 5.30694 9.43352C5.52055 9.25049 5.81429 8.99072 5.97653 8.84154C6.11104 8.71774 6.07637 8.71647 6.2242 8.85076Z" />
</g>
<defs>
<clipPath id="clip0_330_763">
<rect width="12.203" height="12.1838" transform="translate(0 0.642578)"/>
</clipPath>
</defs>
</svg>
