<svg xmlns="http://www.w3.org/2000/svg" version="1.1" xmlns:xlink="http://www.w3.org/1999/xlink" xmlns:svgjs="http://svgjs.com/svgjs" viewBox="0 0 64 64" style="enable-background:new 0 0 512 512" xml:space="preserve" class="">
  <g>
    <g>
      <path d="m52.77 9.37h-3.87v-3.86c0-2.99-2.44-5.43-5.43-5.43h-30.25c-2.99 0-5.43 2.44-5.43 5.43v43.51c0 2.99 2.44 5.43 5.43 5.43h3.87v3.87c0 2.99 2.44 5.43 5.43 5.43h30.25c2.99 0 5.43-2.44 5.43-5.43v-43.52c0-2.99-2.43-5.43-5.43-5.43zm-42.11 39.64v-43.5c0-1.42 1.15-2.57 2.57-2.57h30.25c1.42 0 2.57 1.15 2.57 2.57v43.51c0 1.42-1.15 2.57-2.57 2.57h-30.26c-1.41-.01-2.56-1.16-2.56-2.58zm44.68 9.3c0 1.42-1.15 2.57-2.57 2.57h-30.25c-1.42 0-2.57-1.15-2.57-2.57v-3.87h23.52c2.99 0 5.43-2.44 5.43-5.43v-36.78h3.87c1.42 0 2.57 1.15 2.57 2.57z" fill="#000000" data-original="#000000" class=""></path>
    </g>
  </g>
</svg>