<svg width="26" height="26" viewBox="0 0 26 26" fill="none" xmlns="http://www.w3.org/2000/svg">
<g clip-path="url(#clip0_491_891)">
<path d="M13 0C5.81491 0 0 5.81425 0 13C0 20.185 5.81425 26 13 26C20.1851 26 26 20.1857 26 13C26 5.81501 20.1857 0 13 0ZM13 24.186C6.83201 24.186 1.81396 19.168 1.81396 13C1.81396 6.83196 6.83201 1.81396 13 1.81396C19.168 1.81396 24.186 6.83196 24.186 13C24.186 19.168 19.168 24.186 13 24.186Z" fill="white"/>
<path d="M13.0003 10.8369C12.2303 10.8369 11.6827 11.1621 11.6827 11.6412V18.1608C11.6827 18.5716 12.2303 18.9822 13.0003 18.9822C13.7361 18.9822 14.335 18.5716 14.335 18.1608V11.6411C14.335 11.1621 13.7361 10.8369 13.0003 10.8369Z" fill="white"/>
<path d="M13.0003 6.81543C12.2131 6.81543 11.5972 7.38012 11.5972 8.03037C11.5972 8.68068 12.2132 9.26248 13.0003 9.26248C13.7704 9.26248 14.3864 8.68068 14.3864 8.03037C14.3864 7.38012 13.7703 6.81543 13.0003 6.81543Z" fill="white"/>
</g>
<defs>
<clipPath id="clip0_491_891">
<rect width="26" height="26" fill="white"/>
</clipPath>
</defs>
</svg>
