<svg width="28" height="27" viewBox="0 0 28 27" fill="none" xmlns="http://www.w3.org/2000/svg">
<g clip-path="url(#clip0_335_1439)">
<path fill-rule="evenodd" clip-rule="evenodd" d="M17.5173 0.0434525C17.4995 0.0632347 17.3855 0.227499 17.2643 0.408458C16.4926 1.55964 15.422 2.94848 14.292 4.26416C14.0456 4.55112 14.0062 4.59219 13.977 4.59288C13.9607 4.59324 13.4109 3.95209 13.0069 3.46161C12.1274 2.39369 11.3865 1.41193 10.7667 0.493038C10.5229 0.131589 10.4808 0.079439 10.4327 0.079439C10.3074 0.079439 8.06217 1.93684 6.67526 3.1878C6.46895 3.3739 6.46864 3.37272 6.76199 3.54443C8.30766 4.44926 11.7791 6.99165 11.6714 7.13989C11.4558 7.43652 7.85009 10.9116 7.4182 11.239L7.35874 11.2841L7.31383 11.231C7.2891 11.2018 7.09141 10.9711 6.87447 10.7182C5.65087 9.29202 4.50838 7.79151 3.73745 6.59814C3.52034 6.26209 3.512 6.25264 3.45704 6.28099C3.28036 6.37212 0.123602 9.84981 0.0559825 10.0278C0.0405337 10.0685 0.0680174 10.0929 0.270066 10.2177C1.23981 10.8167 2.38084 11.6058 3.41669 12.3937C4.04011 12.868 4.76169 13.443 4.76139 13.4654C4.7589 13.6298 1.62481 15.9085 0.248729 16.7464C0.0326177 16.8779 0.00425997 16.9011 0.00366251 16.9463C0.00231822 17.0515 3.35099 20.7357 3.44783 20.7357C3.48683 20.7357 3.51792 20.6952 3.7164 20.3862C4.48253 19.193 5.63661 17.6794 6.97756 16.1089C7.15621 15.8996 7.32088 15.716 7.34346 15.7007C7.3893 15.6699 7.50042 15.7663 8.61291 16.8005C9.56137 17.6822 11.6094 19.7003 11.6839 19.8266C11.7083 19.868 11.6642 19.907 10.999 20.4309C9.43151 21.6659 7.96389 22.694 6.68211 23.4547C6.38211 23.6329 6.37798 23.6092 6.77171 23.9683C7.85787 24.9592 10.1491 26.8834 10.3498 26.9735C10.4113 27.0011 10.3754 27.0449 10.7484 26.4863C11.4421 25.4477 12.4251 24.1677 13.5249 22.8714C13.7517 22.6039 13.9508 22.3801 13.967 22.3741C14.0886 22.3291 16.0733 24.8123 17.046 26.2263C17.26 26.5373 17.4502 26.8125 17.4687 26.838C17.5439 26.9414 17.9089 26.6673 19.6236 25.2192C21.4744 23.6561 21.5282 23.5991 21.2864 23.4542C20.5935 23.0397 19.4734 22.2964 18.7274 21.7565C17.6182 20.9537 16.2949 19.9163 16.2949 19.8498C16.2949 19.7426 18.7395 17.3482 20.1623 16.0617C20.3999 15.8468 20.5945 15.6639 20.5945 15.6553C20.5945 15.6239 19.5827 14.5051 18.9454 13.8318L18.6087 13.4761L18.9241 13.1421C19.3602 12.6804 19.8194 12.1803 20.2313 11.7185C20.6551 11.2433 20.5548 11.2492 21.0351 11.6714C21.5662 12.1383 22.2371 12.7089 22.7335 13.1164C23.2111 13.5082 23.2025 13.4513 22.8306 13.7543C22.1698 14.293 20.6158 15.6277 20.6158 15.6567C20.6158 15.6632 20.7035 15.7698 20.8109 15.8937C22.2085 17.5086 23.4065 19.0668 24.2241 20.333C24.4903 20.7452 24.4698 20.7343 24.6446 20.5583C25.7198 19.4752 27.934 17.0186 27.9345 16.9081C27.9346 16.8868 27.8062 16.7952 27.5883 16.6612C26.2947 15.8658 23.2191 13.622 23.2191 13.4736C23.2191 13.3914 25.128 11.9388 26.2676 11.1539C26.6999 10.8561 27.7264 10.1916 27.8964 10.0995C28.0448 10.019 28.0566 10.0431 27.6136 9.52507C26.7667 8.53488 25.3875 7.03147 24.6669 6.31305C24.5111 6.15788 24.5367 6.13936 24.2009 6.65104C23.3987 7.87376 22.4 9.18904 21.2117 10.5875C20.7648 11.1134 20.6151 11.2797 20.5946 11.2724C20.454 11.2226 16.3203 7.23995 16.2676 7.10364C16.2564 7.07481 17.4593 6.12765 18.2579 5.53642C19.348 4.72936 20.2791 4.10385 21.3515 3.45801C21.4602 3.39252 21.5119 3.34862 21.5119 3.32203C21.5119 3.22664 19.2052 1.26755 17.8683 0.227561C17.5615 -0.0111237 17.5649 -0.0093347 17.5173 0.0434525ZM14.2268 4.8965C14.6996 5.43697 15.7447 6.57496 16.0851 6.92004C16.2637 7.1009 16.2814 7.06825 15.7774 7.48549C15.0926 8.05235 14.0213 8.97709 14.0055 9.01472C13.9991 9.03002 14.0222 9.05166 14.6835 9.6531C16.0032 10.8534 18.5887 13.3833 18.5887 13.4743C18.5887 13.5326 16.7478 15.3683 15.7084 16.3465C15.1614 16.8613 14.1734 17.766 14.0283 17.885L13.9813 17.9234L13.5176 17.5046C12.2971 16.4017 10.9448 15.0984 9.80056 13.9223L9.36623 13.4758L9.61919 13.2148C10.8914 11.9013 12.4023 10.4442 13.6756 9.30255C13.8311 9.16315 13.9584 9.03769 13.9584 9.02375C13.9584 8.98385 13.1842 8.30649 12.2257 7.50779C11.971 7.29558 11.7568 7.11272 11.7495 7.10145C11.7423 7.09017 11.8794 6.93067 12.0542 6.74701C12.519 6.25875 13.0544 5.67613 13.5372 5.13299C14.0367 4.57145 13.9642 4.59629 14.2268 4.8965ZM7.71194 11.684C8.16503 12.1909 8.61822 12.6848 9.01303 13.1023C9.4136 13.5258 9.40435 13.4316 9.07927 13.7764C8.63665 14.2457 8.16753 14.7565 7.76288 15.2095C7.30982 15.7167 7.41978 15.7025 6.9758 15.3116C6.42773 14.829 5.85437 14.3404 5.32182 13.9021C4.74582 13.4279 4.74222 13.5272 5.35383 13.0218C5.90902 12.5629 6.64385 11.935 7.07686 11.5494C7.22943 11.4135 7.36162 11.3064 7.3706 11.3114C7.37961 11.3163 7.53322 11.484 7.71194 11.684ZM14.2813 18.1893C14.7115 18.5669 15.3945 19.1492 15.8307 19.5106C16.2876 19.889 16.2684 19.8322 16.0257 20.0884C15.5951 20.5427 14.8179 21.3884 14.4387 21.8154C14.2178 22.0641 14.0247 22.2748 14.0098 22.2833C13.9709 22.3059 13.9247 22.2601 13.4862 21.7639C13.0633 21.2855 12.3916 20.5549 11.9882 20.1346C11.8494 19.99 11.7389 19.8631 11.7428 19.8529C11.7467 19.8423 11.9419 19.675 12.1766 19.4807C12.6668 19.0752 13.3407 18.4995 13.713 18.1689C14.0216 17.8946 13.9421 17.8917 14.2813 18.1893Z" fill="black"/>
</g>
<defs>
<clipPath id="clip0_335_1439">
<rect width="28" height="27" fill="white"/>
</clipPath>
</defs>
</svg>
