<svg viewBox="0 0 25 24" fill="none" xmlns="http://www.w3.org/2000/svg">
<path fill-rule="evenodd" clip-rule="evenodd" d="M5.77446 10.1262C5.5 10.7229 5.5 11.4018 5.5 12.7595V16.9999C5.5 18.8856 5.5 19.8284 6.08579 20.4142C6.61733 20.9457 7.44285 20.9949 9 20.9995V16C9 14.8954 9.89543 14 11 14H14C15.1046 14 16 14.8954 16 16V20.9995C17.5572 20.9949 18.3827 20.9457 18.9142 20.4142C19.5 19.8284 19.5 18.8856 19.5 16.9999V12.7595C19.5 11.4018 19.5 10.7229 19.2255 10.1262C18.9511 9.52943 18.4356 9.08763 17.4047 8.20401L16.4047 7.34687C14.5414 5.74974 13.6098 4.95117 12.5 4.95117C11.3902 4.95117 10.4586 5.74974 8.59525 7.34687L7.59525 8.20401C6.56437 9.08763 6.04892 9.52943 5.77446 10.1262ZM14 20.9999V16H11V20.9999H14Z" fill="#474A56"/>
</svg>
