<svg width="43" height="42" viewBox="0 0 43 42" fill="none" xmlns="http://www.w3.org/2000/svg">
<rect width="43" height="42" rx="21" fill="#FFD5D5"/>
<path d="M17.6123 13.9151C17.266 12.7124 17.0928 12.111 17.1134 11.6233C17.166 10.3805 17.9799 9.29914 19.1596 8.90478C19.6226 8.75 20.2484 8.75 21.5 8.75V8.75C22.7516 8.75 23.3774 8.75 23.8404 8.90478C25.0201 9.29914 25.834 10.3805 25.8866 11.6233C25.9072 12.111 25.734 12.7124 25.3877 13.9151L23.2156 21.4587C23.0588 22.0032 22.9804 22.2755 22.797 22.4583C22.7315 22.5236 22.6572 22.5795 22.5763 22.6244C22.35 22.75 22.0666 22.75 21.5 22.75V22.75C20.9334 22.75 20.65 22.75 20.4237 22.6244C20.3428 22.5795 20.2685 22.5236 20.203 22.4583C20.0196 22.2755 19.9412 22.0032 19.7844 21.4587L17.6123 13.9151Z" fill="#FF5959" stroke="#FF5959" stroke-width="2"/>
<ellipse cx="21.5" cy="29.75" rx="1.79167" ry="1.75" fill="#FF5959" stroke="#FF5959" stroke-width="2"/>
</svg>
