<svg width="36" height="36" viewBox="0 0 36 36" fill="none" xmlns="http://www.w3.org/2000/svg">
<rect width="36" height="36" rx="18" fill="#06A921"/>
<path d="M13.4721 11.2592L14.0541 12.1875C14.0846 12.2378 14.1285 12.2796 14.1813 12.3088C14.2341 12.338 14.294 12.3537 14.3551 12.3542H20.6449C20.706 12.3537 20.7659 12.338 20.8187 12.3088C20.8715 12.2796 20.9153 12.2378 20.9459 12.1875L21.5287 11.2583C21.6076 11.1319 21.65 10.988 21.6514 10.841C21.6528 10.6941 21.6133 10.5494 21.5369 10.4216C21.4604 10.2939 21.3497 10.1876 21.216 10.1135C21.0823 10.0395 20.9304 10.0003 20.7756 10H14.2261C14.0711 10.0001 13.9189 10.0391 13.785 10.1132C13.6511 10.1872 13.5402 10.2936 13.4636 10.4215C13.387 10.5494 13.3474 10.6943 13.3489 10.8414C13.3504 10.9886 13.393 11.1327 13.4721 11.2592ZM10.4783 20C10.4783 21.6667 11.356 25 17.5 25C23.644 25 24.5217 21.6667 24.5217 20C24.5217 17.2325 22.704 15.0367 21.2698 13.6942C21.2373 13.6637 21.1988 13.6397 21.1564 13.6236C21.1141 13.6074 21.0688 13.5994 21.0231 13.6H13.9768C13.9312 13.5994 13.8859 13.6074 13.8435 13.6236C13.8012 13.6397 13.7627 13.6637 13.7302 13.6942C12.296 15.0367 10.4783 17.2325 10.4783 20ZM15.3057 20.5108C15.3042 20.0953 15.4486 19.6912 15.7159 19.3622C15.9832 19.0333 16.3583 18.7982 16.782 18.6942L17.8923 18.4283C18.0325 18.3941 18.1563 18.3156 18.2434 18.2058C18.3316 18.0957 18.3788 17.9609 18.3777 17.8225C18.3803 17.6597 18.3147 17.5027 18.1954 17.3858C18.0761 17.2689 17.9128 17.2018 17.7414 17.1992H17.2586C17.0996 17.2014 16.9471 17.2592 16.8303 17.3617C16.7135 17.4641 16.6407 17.6039 16.6258 17.7542C16.6066 17.9189 16.5192 18.0697 16.3829 18.1733C16.2466 18.2769 16.0726 18.3249 15.899 18.3067C15.7255 18.2884 15.5667 18.2055 15.4576 18.0761C15.3484 17.9467 15.2979 17.7814 15.3171 17.6167C15.3616 17.2298 15.5325 16.8658 15.806 16.5759C16.0794 16.2859 16.4416 16.0846 16.8417 16V15.8333C16.8417 15.6676 16.9111 15.5086 17.0345 15.3914C17.158 15.2742 17.3254 15.2083 17.5 15.2083C17.6746 15.2083 17.842 15.2742 17.9655 15.3914C18.0889 15.5086 18.1583 15.6676 18.1583 15.8333V15.9942C18.5901 16.0871 18.9765 16.3151 19.2556 16.6416C19.5346 16.9681 19.69 17.374 19.6969 17.7944C19.7037 18.2148 19.5617 18.6251 19.2935 18.9597C19.0253 19.2942 18.6465 19.5335 18.218 19.6392L17.1077 19.905C16.9674 19.9405 16.8436 20.0193 16.7557 20.129C16.6678 20.2387 16.6209 20.373 16.6223 20.5108C16.6218 20.6768 16.6906 20.8362 16.8136 20.9542C16.8711 21.0112 16.9402 21.0566 17.0167 21.0875C17.0932 21.1184 17.1755 21.1343 17.2586 21.1342H17.7414C17.9003 21.1329 18.0531 21.076 18.1705 20.9743C18.2879 20.8727 18.3617 20.7334 18.3777 20.5833C18.3872 20.5017 18.4136 20.4227 18.4552 20.3508C18.4969 20.2789 18.5531 20.2155 18.6206 20.1642C18.688 20.1129 18.7655 20.0747 18.8485 20.0518C18.9316 20.0289 19.0185 20.0218 19.1045 20.0308C19.1904 20.0399 19.2736 20.0649 19.3493 20.1044C19.4251 20.144 19.4919 20.1973 19.5459 20.2614C19.6 20.3255 19.6402 20.399 19.6643 20.4779C19.6884 20.5567 19.6959 20.6392 19.6864 20.7208C19.6428 21.1085 19.4722 21.4733 19.1987 21.7641C18.9252 22.0549 18.5626 22.2569 18.1618 22.3417V22.5C18.1618 22.6658 18.0924 22.8247 17.969 22.9419C17.8455 23.0592 17.6781 23.125 17.5035 23.125C17.3289 23.125 17.1615 23.0592 17.038 22.9419C16.9146 22.8247 16.8452 22.6658 16.8452 22.5V22.3392C16.4781 22.2625 16.1426 22.0859 15.8797 21.8308C15.5117 21.4805 15.3052 21.0057 15.3057 20.5108Z" fill="white"/>
</svg>
