<svg width="28" height="28" viewBox="0 0 28 28" fill="none" xmlns="http://www.w3.org/2000/svg">
<path fill-rule="evenodd" clip-rule="evenodd" d="M13.9998 -0.000976562C21.7319 -0.000976562 28 6.26712 28 13.9992C28 21.7313 21.7319 27.9994 13.9998 27.9994C6.26773 27.9994 -0.000366211 21.7313 -0.000366211 13.9992C-0.000366211 6.26712 6.26773 -0.000976562 13.9998 -0.000976562ZM13.9135 18.9705H8.54118V19.7423H13.9135V18.9705ZM14.8487 18.5027C14.8489 18.4413 14.837 18.3804 14.8135 18.3235C14.7901 18.2667 14.7557 18.215 14.7122 18.1716C14.6688 18.1281 14.6171 18.0937 14.5603 18.0702C14.5034 18.0468 14.4425 18.0349 14.3811 18.0351H8.07338C8.01191 18.0349 7.95101 18.0468 7.89418 18.0703C7.83735 18.0937 7.78572 18.1281 7.74226 18.1716C7.6988 18.2151 7.66437 18.2667 7.64096 18.3235C7.61755 18.3804 7.60561 18.4413 7.60585 18.5027V20.21C7.60605 20.334 7.65536 20.4528 7.74299 20.5405C7.83062 20.6281 7.94942 20.6775 8.07338 20.6778H14.3813C14.5053 20.6775 14.6241 20.6281 14.7117 20.5405C14.7993 20.4528 14.8487 20.334 14.8489 20.21L14.8487 18.5027ZM11.4164 7.0747C11.4167 7.19867 11.4661 7.31749 11.5537 7.40514C11.6414 7.49279 11.7602 7.54212 11.8842 7.54234H12.8493V8.50928C12.848 8.57154 12.8591 8.63343 12.882 8.69134C12.9048 8.74925 12.9391 8.802 12.9826 8.84651C13.0262 8.89101 13.0782 8.92637 13.1356 8.95051C13.193 8.97465 13.2546 8.98709 13.3169 8.98709C13.3792 8.98709 13.4408 8.97465 13.4982 8.95051C13.5556 8.92637 13.6076 8.89101 13.6512 8.84651C13.6947 8.802 13.7289 8.74925 13.7518 8.69134C13.7747 8.63343 13.7858 8.57154 13.7845 8.50928V7.54234H14.7501C14.8126 7.54399 14.8747 7.53312 14.9329 7.51037C14.9911 7.48761 15.0441 7.45343 15.0888 7.40985C15.1336 7.36627 15.1692 7.31416 15.1934 7.25661C15.2177 7.19905 15.2302 7.13722 15.2302 7.07475C15.2302 7.01228 15.2177 6.95045 15.1934 6.89289C15.1692 6.83534 15.1336 6.78323 15.0888 6.73965C15.0441 6.69607 14.9911 6.66189 14.9329 6.63914C14.8747 6.61638 14.8126 6.60551 14.7501 6.60717H13.7846V5.64028C13.786 5.57802 13.7749 5.51613 13.752 5.45822C13.7291 5.40031 13.6949 5.34755 13.6513 5.30305C13.6078 5.25854 13.5558 5.22318 13.4984 5.19904C13.441 5.1749 13.3793 5.16247 13.3171 5.16247C13.2548 5.16247 13.1931 5.1749 13.1357 5.19904C13.0783 5.22318 13.0263 5.25854 12.9828 5.30305C12.9392 5.34755 12.905 5.40031 12.8821 5.45822C12.8592 5.51613 12.8481 5.57802 12.8495 5.64028V6.60689H11.8842C11.7602 6.60712 11.6414 6.65649 11.5537 6.74417C11.466 6.83185 11.4166 6.9507 11.4164 7.0747ZM20.1967 16.7333C20.1348 16.7326 20.0735 16.7442 20.0161 16.7674C19.9588 16.7906 19.9066 16.8249 19.8627 16.8684C19.8187 16.9119 19.7838 16.9637 19.76 17.0208C19.7361 17.0779 19.7239 17.1391 19.7239 17.201C19.7239 17.2628 19.7361 17.3241 19.76 17.3811C19.7838 17.4382 19.8187 17.49 19.8627 17.5335C19.9066 17.577 19.9588 17.6113 20.0161 17.6346C20.0735 17.6578 20.1348 17.6694 20.1967 17.6687H20.2017C20.3249 17.6674 20.4426 17.6175 20.5292 17.5299C20.6158 17.4424 20.6644 17.3242 20.6644 17.201C20.6644 17.0778 20.6158 16.9596 20.5292 16.872C20.4426 16.7844 20.3249 16.7346 20.2017 16.7333H20.1967ZM20.9827 19.52H20.3579C19.7443 19.517 19.1568 19.2712 18.7239 18.8362C18.2911 18.4013 18.0481 17.8126 18.0481 17.1989C18.0481 16.5853 18.2911 15.9966 18.7239 15.5617C19.1568 15.1267 19.7443 14.8809 20.3579 14.8779H20.9827V12.512H7.86507C7.22724 12.5131 6.6064 12.3065 6.09639 11.9234L5.84696 11.7362V20.9583C5.84755 21.2045 5.94572 21.4404 6.11994 21.6143C6.29416 21.7882 6.53023 21.8859 6.77639 21.886H20.9827V19.52ZM5.84696 9.56126C5.84793 10.0959 6.06094 10.6083 6.43926 10.9861C6.81758 11.3639 7.33031 11.5762 7.86496 11.5764H18.8039V7.54234H17.1871L17.1668 7.67452C17.0249 8.59376 16.5588 9.43189 15.8527 10.0373C15.1466 10.6428 14.2472 10.9756 13.3171 10.9756C12.387 10.9756 11.4875 10.6428 10.7815 10.0373C10.0754 9.43189 9.60926 8.59376 9.46738 7.67452L9.44704 7.54234H7.86507C7.32982 7.54279 6.81664 7.75568 6.43826 8.13426C6.05988 8.51283 5.84714 9.02602 5.84696 9.56126ZM11.2221 9.16871C11.6363 9.58313 12.1641 9.86539 12.7388 9.97979C13.3134 10.0942 13.9091 10.0356 14.4505 9.81144C14.9919 9.58727 15.4546 9.20758 15.7801 8.72041C16.1057 8.23323 16.2795 7.66045 16.2795 7.07451C16.2795 6.48856 16.1057 5.91578 15.7801 5.42861C15.4546 4.94143 14.9919 4.56174 14.4505 4.33757C13.9091 4.1134 13.3134 4.05481 12.7388 4.16922C12.1641 4.28362 11.6363 4.56589 11.2221 4.9803C10.6672 5.53604 10.3556 6.28923 10.3556 7.07451C10.3556 7.85979 10.6672 8.61298 11.2221 9.16871ZM22.1527 15.8133H20.3579C19.9919 15.8156 19.6417 15.9626 19.3837 16.2223C19.1257 16.4819 18.9809 16.833 18.9809 17.199C18.9809 17.565 19.1257 17.9161 19.3837 18.1758C19.6417 18.4354 19.9919 18.5824 20.3579 18.5847H22.1527V15.8133Z" fill="#474A56"/>
</svg>
