<svg width="36" height="36" viewBox="0 0 36 36" fill="none" xmlns="http://www.w3.org/2000/svg">
<rect width="36" height="36" rx="18" fill="#DD7D0C"/>
<path d="M11.5126 17.2992C10.8292 18.0314 10.8292 19.2186 11.5126 19.9508C12.196 20.6831 13.304 20.6831 13.9874 19.9508C14.6709 19.2186 14.6709 18.0314 13.9874 17.2992C13.304 16.5669 12.196 16.5669 11.5126 17.2992Z" fill="white"/>
<path d="M16.7626 17.2992C16.0792 18.0314 16.0792 19.2186 16.7626 19.9508C17.446 20.6831 18.554 20.6831 19.2374 19.9508C19.9209 19.2186 19.9209 18.0314 19.2374 17.2992C18.554 16.5669 17.446 16.5669 16.7626 17.2992Z" fill="white"/>
<path d="M22.0126 17.2992C21.3292 18.0314 21.3292 19.2186 22.0126 19.9508C22.696 20.6831 23.804 20.6831 24.4874 19.9508C25.1709 19.2186 25.1709 18.0314 24.4874 17.2992C23.804 16.5669 22.696 16.5669 22.0126 17.2992Z" fill="white"/>
</svg>
