<svg width="28" height="28" viewBox="0 0 28 28" fill="none" xmlns="http://www.w3.org/2000/svg">
<g clip-path="url(#clip0_335_1532)">
<path d="M14 28C21.732 28 28 21.732 28 14C28 6.26801 21.732 0 14 0C6.26801 0 0 6.26801 0 14C0 21.732 6.26801 28 14 28Z" fill="url(#paint0_linear_335_1532)"/>
<path d="M24.1903 14.2H21.6874C21.6874 9.13612 17.5379 5.03125 12.419 5.03125C7.36344 5.03125 3.25322 9.03562 3.15264 14.0128C3.04856 19.1575 7.92777 23.625 13.1291 23.625H13.7834C18.369 23.625 24.5151 20.074 25.4755 15.7472C25.6529 14.9497 25.0159 14.2 24.1903 14.2ZM8.6995 14.4256C8.6995 15.1027 8.13963 15.6566 7.4551 15.6566C6.77056 15.6566 6.21072 15.1025 6.21072 14.4256V12.4341C6.21072 11.7569 6.77056 11.203 7.4551 11.203C8.13963 11.203 8.6995 11.7569 8.6995 12.4341V14.4256ZM13.0206 14.4256C13.0206 15.1027 12.4607 15.6566 11.7762 15.6566C11.0917 15.6566 10.5318 15.1025 10.5318 14.4256V12.4341C10.5318 11.7569 11.0919 11.203 11.7762 11.203C12.4607 11.203 13.0206 11.7569 13.0206 12.4341V14.4256Z" fill="url(#paint1_linear_335_1532)"/>
</g>
<defs>
<linearGradient id="paint0_linear_335_1532" x1="14" y1="0" x2="14" y2="28" gradientUnits="userSpaceOnUse">
<stop stop-color="#534BB1"/>
<stop offset="1" stop-color="#551BF9"/>
</linearGradient>
<linearGradient id="paint1_linear_335_1532" x1="14.3281" y1="5.03125" x2="14.3281" y2="23.625" gradientUnits="userSpaceOnUse">
<stop stop-color="white"/>
<stop offset="1" stop-color="white" stop-opacity="0.82"/>
</linearGradient>
<clipPath id="clip0_335_1532">
<rect width="28" height="28" fill="white"/>
</clipPath>
</defs>
</svg>
