<svg viewBox="0 0 25 24" fill="none" xmlns="http://www.w3.org/2000/svg">
<path d="M7.00248 6.97519C7.28492 4.15083 9.66156 2 12.5 2C15.3384 2 17.7151 4.15083 17.9975 6.97519L18.2841 9.84133C18.3016 10.0156 18.3103 10.1028 18.3207 10.1885C18.4649 11.3717 18.8717 12.5077 19.5113 13.5135C19.5576 13.5865 19.6062 13.6593 19.7034 13.8051L20.5645 15.0968C21.3508 16.2763 21.744 16.866 21.5715 17.3412C21.5388 17.4311 21.4935 17.5158 21.4368 17.5928C21.1371 18 20.4283 18 19.0108 18H5.98923C4.57168 18 3.86291 18 3.56318 17.5928C3.50651 17.5158 3.46117 17.4311 3.42854 17.3412C3.25601 16.866 3.64916 16.2763 4.43548 15.0968L5.29661 13.8051C5.39378 13.6593 5.44236 13.5865 5.48873 13.5135C6.12832 12.5077 6.53508 11.3717 6.67927 10.1885C6.68972 10.1028 6.69844 10.0156 6.71587 9.84133L7.00248 6.97519Z"/>
<path d="M10.5681 20.6294C10.6821 20.7357 10.9332 20.8297 11.2825 20.8967C11.6318 20.9637 12.0597 21 12.5 21C12.9403 21 13.3682 20.9637 13.7175 20.8967C14.0668 20.8297 14.3179 20.7357 14.4319 20.6294"/>
</svg>
