<svg width="12" height="12" viewBox="0 0 12 12" fill="none" xmlns="http://www.w3.org/2000/svg">
<g clip-path="url(#clip0_313_842)">
<path d="M9.46218 8.73016L6.41531 11.7918C6.18627 12.0212 5.81352 12.021 5.58524 11.7923L2.53781 8.7301C2.30956 8.50073 2.31041 8.12971 2.5398 7.90143C2.76917 7.67315 3.14015 7.67403 3.36844 7.9034L5.41406 9.95898L5.41406 0.550058C5.41406 0.226444 5.67639 -0.0358795 6 -0.0358795C6.32361 -0.0358794 6.58594 0.226444 6.58594 0.550058L6.58593 9.95898L8.63156 7.90346C8.85984 7.67409 9.23083 7.67321 9.46019 7.90149C9.68962 8.1298 9.69041 8.50082 9.46218 8.73016Z" fill="#DD320C"/>
</g>
<defs>
<clipPath id="clip0_313_842">
<rect width="12" height="12" fill="white" transform="matrix(1 1.74846e-07 1.74846e-07 -1 0 12)"/>
</clipPath>
</defs>
</svg>
