<svg width="14" height="14" viewBox="0 0 14 14" fill="none" xmlns="http://www.w3.org/2000/svg">
<path d="M7 0C3.12081 0 0 3.12081 0 7C0 10.8792 3.12081 14 7 14C10.8792 14 14 10.8792 14 7C14 3.12081 10.8792 0 7 0Z" fill="#0E97FB"/>
<path d="M5.07509 5.89141C5.07509 6.91222 5.68759 7.26222 6.91259 7.40803C7.78759 7.52472 7.96259 7.75803 7.96259 8.16641C7.96259 8.57479 7.6709 8.83722 7.08759 8.83722C6.56259 8.83722 6.2709 8.66222 6.12509 8.22472C6.0959 8.13722 6.0084 8.07891 5.9209 8.07891H5.45428C5.33759 8.07891 5.25009 8.16641 5.25009 8.28303V8.31222C5.36678 8.95391 5.89178 9.44972 6.56259 9.50803V10.208C6.56259 10.3247 6.65009 10.4122 6.7959 10.4414H7.2334C7.35009 10.4414 7.43759 10.3539 7.46678 10.208V9.53722C8.34178 9.42053 8.8959 8.83722 8.8959 8.10803C8.8959 7.14553 8.31259 6.76641 7.08759 6.62053C6.2709 6.47472 6.0084 6.29972 6.0084 5.83303C6.0084 5.36634 6.41678 5.04553 6.9709 5.04553C7.72928 5.04553 7.99178 5.36641 8.07928 5.80391C8.1084 5.92053 8.1959 5.97891 8.2834 5.97891H8.77928C8.8959 5.97891 8.9834 5.89141 8.9834 5.77472V5.74553C8.86678 5.01641 8.40009 4.49141 7.43759 4.34553V3.64553C7.43759 3.52891 7.35009 3.44141 7.20428 3.41222H6.76678C6.65009 3.41222 6.56259 3.49972 6.5334 3.64553V4.34553C5.6584 4.49141 5.07509 5.10391 5.07509 5.89141Z" fill="white"/>
<path d="M8.48766 2.82938C10.7627 3.646 11.9294 6.1835 11.0835 8.42938C10.646 9.65438 9.68347 10.5877 8.48766 11.0252C8.37097 11.0835 8.31266 11.171 8.31266 11.3169V11.7252C8.31266 11.8419 8.37097 11.9294 8.48766 11.9585C8.51685 11.9585 8.57516 11.9585 8.60435 11.9294C11.3752 11.0544 12.8919 8.1085 12.0169 5.33769C11.4919 3.70438 10.2377 2.45019 8.60435 1.92519C8.48766 1.86688 8.37097 1.92519 8.34185 2.04188C8.31266 2.071 8.31266 2.10019 8.31266 2.1585V2.56688C8.31266 2.65438 8.40016 2.771 8.48766 2.82938ZM5.39597 11.9294C5.51266 11.9877 5.62935 11.9294 5.65847 11.8127C5.68766 11.7835 5.68766 11.7544 5.68766 11.696V11.2877C5.68766 11.171 5.60016 11.0544 5.51266 10.996C3.23766 10.1794 2.07097 7.64188 2.91685 5.396C3.35435 4.171 4.31685 3.23769 5.51266 2.80019C5.62935 2.74188 5.68766 2.65438 5.68766 2.5085V2.10019C5.68766 1.9835 5.62935 1.896 5.51266 1.86688C5.48347 1.86688 5.42516 1.86688 5.39597 1.896C2.62516 2.771 1.10847 5.71688 1.98347 8.48769C2.50847 10.1502 3.79185 11.4044 5.39597 11.9294Z" fill="white"/>
</svg>
