<svg width="50" height="50" viewBox="0 0 50 50" fill="none" xmlns="http://www.w3.org/2000/svg">
<circle cx="25" cy="25" r="24.5" stroke="black" stroke-opacity="0.15"/>
<g clip-path="url(#clip0_559_855)">
<path d="M0 25C0 11.1935 11.1923 0 25.0004 0C38.8073 0 50 11.1935 50 25C50 38.8077 38.8073 50 25.0004 50C11.1923 50 0 38.8073 0 25" fill="#118ACB"/>
</g>
<path d="M28.4788 11.7718C25.0842 11.7718 22.1324 14.1578 22.1324 17.9671C22.1324 21.3788 24.6415 23.9322 28.7739 23.9322C32.1685 23.9322 35.1414 21.5462 35.1414 17.7369C35.1203 14.3253 32.6113 11.7718 28.4788 11.7718ZM29.2378 22.9904C28.8161 22.9904 28.4366 22.6136 28.1203 21.7974C27.4878 20.2485 27.045 17.9462 27.045 15.3299C27.045 13.4462 27.5089 12.7346 28.0571 12.7346C28.4788 12.7346 28.8583 13.1113 29.1745 13.9276C29.8071 15.4764 30.2498 17.7788 30.2498 20.395C30.2498 22.2578 29.786 22.9904 29.2378 22.9904ZM22.4909 9.07178C21.9427 9.23922 21.7951 9.32294 21.6264 9.51132C21.3523 9.80434 21.2469 10.4322 21.2469 14.116V17.7997C21.2469 23.1369 19.1385 24.895 15.4066 24.895C12.6656 24.895 11 23.4299 11 21.5253C11 20.1439 12.2018 19.2857 14.3945 19.202C14.5632 19.202 14.6897 19.2648 14.6897 19.4741C14.6897 19.7462 14.5632 20.1648 14.5632 21.0857C14.5632 22.7811 15.1747 23.5764 15.8072 23.5764C16.1867 23.5764 16.4186 23.2206 16.4186 22.4253C16.4186 21.2322 16.3343 19.9764 16.3343 18.9509V14.116C16.3343 10.4113 16.1656 9.8462 15.9126 9.55318C15.7229 9.32294 15.4066 9.17643 14.4789 9.05085C14.247 9.00899 14.1415 8.92527 14.1415 8.7369V8.56946C14.1415 8.36015 14.2259 8.29736 14.3945 8.29736C15.4909 8.29736 17.3885 8.38108 18.7168 8.38108C20.0451 8.38108 21.5842 8.29736 22.5963 8.29736C22.765 8.29736 22.8493 8.36015 22.8493 8.56946V8.7369C22.8282 8.92527 22.7439 9.00899 22.4909 9.07178ZM46.8009 19.516C46.7377 19.4532 46.6955 19.4322 46.6322 19.4322C46.4003 19.4322 45.6202 20.5415 44.1654 20.5415C42.0991 20.5415 40.7498 19.1811 40.1805 17.2764H46.1684C46.4425 17.2764 46.5057 17.1927 46.5057 16.9415C46.5057 13.7183 44.6503 11.7718 41.6142 11.7718C38.3883 11.7718 35.7106 14.409 35.7106 17.8834C35.7106 21.5881 38.2829 23.9322 41.319 23.9322C43.4907 23.9322 45.3883 22.8857 46.7166 20.3322C46.8852 20.0392 46.9485 19.8509 46.9485 19.7462C46.9485 19.6834 46.9274 19.6415 46.8852 19.5788L46.8009 19.516ZM41.1293 12.7346C41.7829 12.7346 42.2467 13.4043 42.2467 15.4136C42.2467 16.0415 42.1202 16.1462 41.7196 16.1881L39.9907 16.3555C39.9275 15.9578 39.9064 15.5602 39.9064 15.1625C39.9064 13.4671 40.4335 12.7346 41.1293 12.7346Z" fill="white"/>
<path d="M28.4788 11.7718C25.0842 11.7718 22.1324 14.1578 22.1324 17.9671C22.1324 21.3788 24.6415 23.9322 28.7739 23.9322C32.1685 23.9322 35.1414 21.5462 35.1414 17.7369C35.1203 14.3253 32.6113 11.7718 28.4788 11.7718ZM29.2378 22.9904C28.8161 22.9904 28.4366 22.6136 28.1203 21.7974C27.4878 20.2485 27.045 17.9462 27.045 15.3299C27.045 13.4462 27.5089 12.7346 28.0571 12.7346C28.4788 12.7346 28.8583 13.1113 29.1745 13.9276C29.8071 15.4764 30.2498 17.7788 30.2498 20.395C30.2498 22.2578 29.786 22.9904 29.2378 22.9904ZM22.4909 9.07178C21.9427 9.23922 21.7951 9.32294 21.6264 9.51132C21.3523 9.80434 21.2469 10.4322 21.2469 14.116V17.7997C21.2469 23.1369 19.1385 24.895 15.4066 24.895C12.6656 24.895 11 23.4299 11 21.5253C11 20.1439 12.2018 19.2857 14.3945 19.202C14.5632 19.202 14.6897 19.2648 14.6897 19.4741C14.6897 19.7462 14.5632 20.1648 14.5632 21.0857C14.5632 22.7811 15.1747 23.5764 15.8072 23.5764C16.1867 23.5764 16.4186 23.2206 16.4186 22.4253C16.4186 21.2322 16.3343 19.9764 16.3343 18.9509V14.116C16.3343 10.4113 16.1656 9.8462 15.9126 9.55318C15.7229 9.32294 15.4066 9.17643 14.4789 9.05085C14.247 9.00899 14.1415 8.92527 14.1415 8.7369V8.56946C14.1415 8.36015 14.2259 8.29736 14.3945 8.29736C15.4909 8.29736 17.3885 8.38108 18.7168 8.38108C20.0451 8.38108 21.5842 8.29736 22.5963 8.29736C22.765 8.29736 22.8493 8.36015 22.8493 8.56946V8.7369C22.8282 8.92527 22.7439 9.00899 22.4909 9.07178ZM46.8009 19.516C46.7377 19.4532 46.6955 19.4322 46.6322 19.4322C46.4003 19.4322 45.6202 20.5415 44.1654 20.5415C42.0991 20.5415 40.7498 19.1811 40.1805 17.2764H46.1684C46.4425 17.2764 46.5057 17.1927 46.5057 16.9415C46.5057 13.7183 44.6503 11.7718 41.6142 11.7718C38.3883 11.7718 35.7106 14.409 35.7106 17.8834C35.7106 21.5881 38.2829 23.9322 41.319 23.9322C43.4907 23.9322 45.3883 22.8857 46.7166 20.3322C46.8852 20.0392 46.9485 19.8509 46.9485 19.7462C46.9485 19.6834 46.9274 19.6415 46.8852 19.5788L46.8009 19.516ZM41.1293 12.7346C41.7829 12.7346 42.2467 13.4043 42.2467 15.4136C42.2467 16.0415 42.1202 16.1462 41.7196 16.1881L39.9907 16.3555C39.9275 15.9578 39.9064 15.5602 39.9064 15.1625C39.9064 13.4671 40.4335 12.7346 41.1293 12.7346Z" fill="white"/>
<path d="M47.5991 44.1545V44.377C47.5991 44.5995 47.533 44.6663 47.3128 44.6663C46.652 44.6663 45.1542 44.5773 43.5463 44.5773C42.0705 44.5773 40.7048 44.6663 39.8238 44.6663C39.6035 44.6663 39.5374 44.5995 39.5374 44.377V44.1545C39.5374 43.9765 39.6035 43.9098 39.8018 43.8653C40.2643 43.7763 40.4405 43.6873 40.5066 43.5315C40.6167 43.2868 40.6608 42.8863 40.6608 38.8146V33.4524H37.8194V38.8368C37.8194 42.9308 37.8634 43.3313 37.9736 43.5538C38.0397 43.7318 38.2159 43.7985 38.6784 43.8875C38.8767 43.9098 38.9427 43.9988 38.9427 44.1768V44.3993C38.9427 44.6218 38.8767 44.6885 38.6564 44.6885C37.7753 44.6885 36.4097 44.5995 34.9339 44.5995C33.326 44.5995 31.8282 44.6885 31.1674 44.6885C30.9471 44.6885 30.8811 44.6218 30.8811 44.3993V44.1768C30.8811 43.9543 30.9692 43.9098 31.1454 43.8875C32.0705 43.7985 32.3348 43.7318 32.489 43.5538C32.6652 43.3535 32.7313 42.9753 32.7313 38.8368V33.4524H31.1013C30.8811 33.4524 30.815 33.3857 30.815 33.1632V32.8517C30.815 32.6292 30.8811 32.5624 31.1013 32.5402L32.7753 32.4067C33.0396 29.225 35.2643 27.178 38.2159 27.178C40.0881 27.178 41.1894 28.3572 41.1894 29.2917C41.1894 30.026 40.5947 30.6267 39.3612 30.7157C39.163 30.7379 39.0529 30.6044 39.0529 30.4042C39.0529 30.2707 39.0969 30.026 39.0969 29.8035C39.0969 28.6242 38.7886 28.0457 38.4361 28.0457C38.0617 28.0457 37.7533 28.5797 37.7533 30.1595C37.7533 30.7602 37.7753 31.5834 37.8194 32.4289H40.7269C41.0352 29.1582 43.2159 27 46.4097 27C48.6344 27 50 28.335 50 29.5142C50 30.293 49.4714 30.8492 47.9075 30.9604C47.7093 30.9827 47.5991 30.8492 47.5991 30.6489C47.5991 30.471 47.6432 30.2707 47.6432 30.0927C47.6432 28.602 47.2908 27.8677 46.7841 27.8677C46.2115 27.8677 45.7049 28.424 45.7049 30.8269C45.7049 31.1829 45.7269 31.7614 45.7489 32.4067H47.8634C48.0837 32.4067 48.1498 32.4734 48.1498 32.6959V33.1632C48.1498 33.3857 48.0837 33.4524 47.8634 33.4524H45.7489V38.8368C45.7489 42.9975 45.815 43.3535 45.9912 43.5538C46.1454 43.7318 46.4097 43.7985 47.3348 43.8875C47.511 43.8875 47.5991 43.932 47.5991 44.1545ZM24.8018 32.0729C21.2555 32.0729 18.1718 34.6094 18.1718 38.6588C18.1718 39.1928 18.2379 39.7046 18.348 40.1941C17.467 40.9061 16.3656 41.2843 15.2203 41.2843C12.2908 41.2843 10.2423 38.9258 10.2423 34.8986C10.2423 30.8714 11.7401 29.047 13.0837 29.047C14.1189 29.047 14.7137 30.0927 14.7137 31.9839C14.7137 32.8517 14.5595 33.4969 14.5595 33.8084C14.5595 34.0087 14.6696 34.1199 14.8678 34.1199C17.3789 34.0087 18.2379 33.0519 18.2379 31.5612C18.2379 29.67 16.3216 28.068 13.1938 28.068C9.05287 28.068 5 31.6947 5 37.2571C5 41.7738 8.19384 45 12.2687 45C15.1542 45 17.4229 43.309 18.5683 40.9506C19.4493 43.3758 21.7621 45 25.1101 45C28.6564 45 31.7621 42.4635 31.7621 38.4141C31.7621 34.7874 29.1189 32.0729 24.8018 32.0729ZM25.5947 43.9988C25.1542 43.9988 24.7577 43.5983 24.4273 42.7305C23.7665 41.0841 23.304 38.6366 23.304 35.8554C23.304 33.8529 23.7886 33.0964 24.3612 33.0964C24.8018 33.0964 25.1982 33.4969 25.5286 34.3646C26.1894 36.0111 26.652 38.4586 26.652 41.2398C26.652 43.22 26.1674 43.9988 25.5947 43.9988Z" fill="white"/>
<defs>
<clipPath id="clip0_559_855">
<rect width="50" height="50" fill="white"/>
</clipPath>
</defs>
</svg>
