<svg width="12" height="12" viewBox="0 0 12 12" fill="none" xmlns="http://www.w3.org/2000/svg">
<g clip-path="url(#clip0_314_848)">
<path d="M2.53782 3.26985L5.58469 0.208204C5.81373 -0.0212488 6.18648 -0.0210437 6.41476 0.207736L9.46219 3.2699C9.69044 3.49927 9.68959 3.87028 9.4602 4.09857C9.23083 4.32685 8.85985 4.32597 8.63156 4.0966L6.58594 2.04102V11.4499C6.58594 11.7736 6.32362 12.0359 6 12.0359C5.67639 12.0359 5.41407 11.7736 5.41407 11.4499V2.04102L3.36844 4.09654C3.14016 4.32591 2.76917 4.32679 2.53981 4.09851C2.31038 3.8702 2.30959 3.49918 2.53782 3.26985Z" fill="#0CDD2F"/>
</g>
<defs>
<clipPath id="clip0_314_848">
<rect width="12" height="12" fill="white" transform="matrix(-1 0 0 1 12 0)"/>
</clipPath>
</defs>
</svg>
