<svg width="36" height="36" viewBox="0 0 36 36" fill="none" xmlns="http://www.w3.org/2000/svg">
<rect width="36" height="36" rx="18" fill="#0C6CDD"/>
<g clip-path="url(#clip0_359_686)">
<path d="M23.1875 21.5002C21.6369 21.5002 20.375 20.3224 20.375 18.8752C20.375 17.4279 21.6369 16.2502 23.1875 16.2502H24.75V15.0835C24.75 14.4401 24.1894 13.9168 23.5 13.9168H22.875V12.7502C22.875 12.1067 22.3144 11.5835 21.625 11.5835H12.875C11.9481 11.5835 11.1819 12.2158 11.0319 13.0412C11.0181 13.0891 11 13.1357 11 13.1877V22.0835C11 23.0483 11.8412 23.8335 12.875 23.8335H23.5C24.1894 23.8335 24.75 23.3102 24.75 22.6668V21.5002H23.1875ZM12.25 13.3335C12.25 13.0121 12.53 12.7502 12.875 12.7502H21.625V13.9168H12.875C12.53 13.9168 12.25 13.6549 12.25 13.3335Z" fill="white"/>
<path d="M25.5312 17.125H23.1875C22.1537 17.125 21.3125 17.9102 21.3125 18.875C21.3125 19.8398 22.1537 20.625 23.1875 20.625H25.5312C25.79 20.625 26 20.429 26 20.1875V17.5625C26 17.321 25.79 17.125 25.5312 17.125ZM23.1875 19.4583C22.8425 19.4583 22.5625 19.197 22.5625 18.875C22.5625 18.553 22.8425 18.2917 23.1875 18.2917C23.5325 18.2917 23.8125 18.553 23.8125 18.875C23.8125 19.197 23.5325 19.4583 23.1875 19.4583Z" fill="white"/>
</g>
<defs>
<clipPath id="clip0_359_686">
<rect width="15" height="14" fill="white" transform="translate(11 11)"/>
</clipPath>
</defs>
</svg>
