<svg width="80" height="80" viewBox="0 0 80 80" fill="none" xmlns="http://www.w3.org/2000/svg">
<path fill-rule="evenodd" clip-rule="evenodd" d="M40 80C62.0914 80 80 62.0914 80 40C80 17.9086 62.0914 0 40 0C17.9086 0 0 17.9086 0 40C0 62.0914 17.9086 80 40 80ZM66.9138 62.25L40.5 9L14.0862 62.25H66.9138Z" fill="white"/>
<path d="M38.0831 47.76L37.2431 35.52L37.0431 30.2H42.9631L42.7631 35.52L41.9231 47.76H38.0831ZM40.0031 57.48C38.9898 57.48 38.1365 57.1333 37.4431 56.44C36.7765 55.72 36.4431 54.84 36.4431 53.8C36.4431 52.7333 36.7765 51.8533 37.4431 51.16C38.1365 50.44 38.9898 50.08 40.0031 50.08C41.0165 50.08 41.8565 50.44 42.5231 51.16C43.2165 51.8533 43.5631 52.7333 43.5631 53.8C43.5631 54.84 43.2165 55.72 42.5231 56.44C41.8565 57.1333 41.0165 57.48 40.0031 57.48Z" fill="white"/>
</svg>
