<svg width="28" height="28" viewBox="0 0 28 28" fill="none" xmlns="http://www.w3.org/2000/svg">
<g clip-path="url(#clip0_335_1546)">
<path d="M14.0956 26.8298C14.3896 26.8298 14.628 27.0656 14.628 27.3564C14.628 27.6472 14.3896 27.8829 14.0956 27.8829C13.8016 27.8829 13.5633 27.6472 13.5633 27.3564C13.5633 27.0656 13.8016 26.8298 14.0956 26.8298ZM13.5173 1.67706C13.7775 1.69854 13.9876 1.89568 14.0228 2.15127L14.656 6.75209C14.8687 8.2721 16.7019 8.93071 17.8336 7.89779L24.1779 2.12331C24.3309 1.98402 24.5693 1.99367 24.7103 2.14487C24.8396 2.2836 24.8435 2.49598 24.7193 2.63922L19.187 9.02087C18.1685 10.1936 18.92 12.0249 20.4725 12.1556L25.3539 12.6262C25.597 12.6496 25.7749 12.8633 25.7512 13.1036C25.7316 13.3016 25.579 13.4617 25.38 13.4927L20.2507 14.2936C18.7615 14.4966 18.0871 16.2602 19.0557 17.4059L20.8589 19.5317C21.0042 19.7029 20.9815 19.9581 20.8081 20.1016C20.6613 20.2233 20.4486 20.228 20.2964 20.113L18.0735 18.4342C16.8739 17.5321 15.1449 18.2989 15.0181 19.7919L14.5282 25.6145C14.508 25.855 14.2943 26.0338 14.0508 26.0138C13.8442 25.9968 13.6773 25.8404 13.6493 25.6374L12.8725 20.0129C12.6643 18.4929 10.8311 17.8343 9.69489 18.8672L2.9458 25.0127C2.80609 25.1399 2.58847 25.1311 2.45972 24.9931C2.34159 24.8664 2.338 24.6725 2.45136 24.5417L8.34154 17.7442C9.36001 16.5714 8.61308 14.7401 7.06048 14.6094L2.178 14.1387C1.93488 14.1153 1.75703 13.9016 1.78076 13.6614C1.80032 13.4633 1.95289 13.3033 2.15187 13.2722L7.27776 12.4714C8.76702 12.2684 9.44597 10.5049 8.47734 9.35917L7.24982 7.91207C7.06966 7.69972 7.09789 7.38326 7.31287 7.2053C7.49504 7.05443 7.7588 7.04866 7.94758 7.19135L9.45498 8.33078C10.6546 9.23289 12.3836 8.46614 12.5104 6.97318L12.9159 2.17959C12.9415 1.87674 13.2107 1.65175 13.5173 1.67706ZM0.532375 13.1233C0.826398 13.1233 1.06475 13.359 1.06475 13.6498C1.06475 13.9406 0.826398 14.1764 0.532375 14.1764C0.238352 14.1764 0 13.9406 0 13.6498C0 13.359 0.238352 13.1233 0.532375 13.1233ZM27.233 12.5886C27.527 12.5886 27.7654 12.8244 27.7654 13.1152C27.7654 13.406 27.527 13.6417 27.233 13.6417C26.939 13.6417 26.7006 13.406 26.7006 13.1152C26.7006 12.8244 26.939 12.5886 27.233 12.5886ZM13.4404 0C13.7344 0 13.9728 0.235745 13.9728 0.526551C13.9728 0.817359 13.7344 1.0531 13.4404 1.0531C13.1464 1.0531 12.9081 0.817359 12.9081 0.526551C12.9081 0.235745 13.1464 0 13.4404 0Z" fill="url(#paint0_linear_335_1546)"/>
<path d="M13.7597 18.3559C16.5371 18.3559 18.7887 16.1291 18.7887 13.3821C18.7887 10.6351 16.5371 8.4082 13.7597 8.4082C10.9824 8.4082 8.73083 10.6351 8.73083 13.3821C8.73083 16.1291 10.9824 18.3559 13.7597 18.3559Z" fill="url(#paint1_radial_335_1546)"/>
</g>
<defs>
<linearGradient id="paint0_linear_335_1546" x1="3.62788" y1="4.4352" x2="19.55" y2="18.8492" gradientUnits="userSpaceOnUse">
<stop stop-color="#FFC10B"/>
<stop offset="1" stop-color="#FB3F2E"/>
</linearGradient>
<radialGradient id="paint1_radial_335_1546" cx="0" cy="0" r="1" gradientUnits="userSpaceOnUse" gradientTransform="translate(12.6113 11.5458) rotate(67.5196) scale(7.31136 7.38242)">
<stop stop-color="#FFC10B"/>
<stop offset="1" stop-color="#FB3F2E"/>
</radialGradient>
<clipPath id="clip0_335_1546">
<rect width="28" height="28" fill="white"/>
</clipPath>
</defs>
</svg>
