<svg viewBox="0 0 24 24" fill="none" xmlns="http://www.w3.org/2000/svg">
<path d="M8.29289 6.70711C7.90237 6.31658 7.90237 5.68342 8.29289 5.29289C8.68342 4.90237 9.31658 4.90237 9.70711 5.29289L8.29289 6.70711ZM15 12L15.7071 11.2929L16.4142 12L15.7071 12.7071L15 12ZM9.70711 18.7071C9.31658 19.0976 8.68342 19.0976 8.29289 18.7071C7.90237 18.3166 7.90237 17.6834 8.29289 17.2929L9.70711 18.7071ZM9.70711 5.29289L15.7071 11.2929L14.2929 12.7071L8.29289 6.70711L9.70711 5.29289ZM15.7071 12.7071L9.70711 18.7071L8.29289 17.2929L14.2929 11.2929L15.7071 12.7071Z" fill="#474A56"/>
</svg>
