<svg width="33" height="34" viewBox="0 0 33 34" fill="none" xmlns="http://www.w3.org/2000/svg">
<g clip-path="url(#clip0_506_855)">
<path d="M0 17C0 7.61157 7.38691 0 16.5003 0C25.6128 0 33 7.61157 33 17C33 26.3892 25.6128 34 16.5003 34C7.38691 34 0 26.389 0 17" fill="#397657"/>
<path d="M2.6853 16.7135C2.6853 9.02165 8.89247 2.78662 16.5492 2.78662C24.2059 2.78662 30.4127 9.02165 30.4127 16.7135C30.4127 24.4042 24.2059 30.6389 16.5492 30.6389C8.89247 30.6389 2.6853 24.4042 2.6853 16.7135Z" fill="white"/>
<path d="M10.8298 17.432C10.8357 17.6641 10.8122 17.8959 10.7598 18.122C10.2436 19.1696 9.40598 20.0889 9.26991 21.294C8.67564 21.6747 8.18746 22.3407 7.34026 22.116C7.31066 22.3407 7.37908 22.6825 7.45673 22.9373C6.78481 22.9087 6.32623 23.4072 5.76079 23.6424C5.45904 23.545 5.38101 23.1528 5.26454 22.879C5.92646 22.6543 6.40388 21.9882 7.16421 21.999C7.25223 21.7531 7.11501 21.5284 7.07618 21.294C6.13058 20.8723 4.63029 23.3782 4.50421 21.2056C5.44905 21.1469 6.05331 20.2657 6.98931 20.1777L7.01775 19.4727C5.95568 19.3649 5.27338 20.4615 4.21169 20.3534L3.97721 19.4144C5.20496 19.492 5.93646 18.3865 7.10578 18.327C7.26107 18.122 7.28068 17.8181 7.31066 17.5344C6.0341 17.3675 5.1573 18.7877 3.8027 18.3564C3.8027 18.3564 3.75657 17.7652 3.7312 17.4316H10.8298" fill="#397657"/>
<path d="M12.3273 17.4321C12.3704 17.9534 12.2435 18.4735 11.7546 19.0036C11.0527 19.8346 10.342 20.8821 10.8486 21.9991C11.3848 23.2312 13.0704 24.1907 12.3393 25.7275C11.9403 26.6966 10.9847 27.431 11.0239 28.5759C10.7709 28.4682 10.5084 28.36 10.2935 28.165C10.2935 26.7067 12.3585 25.7962 11.3744 24.2595C11.2876 24.5626 11.268 24.9738 11.1995 25.3167C10.8578 26.2074 10.1275 26.9214 9.85416 27.843C9.39712 27.6658 8.91894 27.294 8.53877 26.9024L9.06578 26.5789C9.00735 26.3827 8.8509 26.2167 8.71444 26.0503C8.37272 26.002 8.149 26.2267 7.86686 26.3152C7.62315 26.0993 7.38867 25.9036 7.19455 25.6394C7.36945 25.1394 8.73405 25.5518 8.04176 24.7294C7.57434 24.4359 7.10691 24.8568 6.69754 25.0529L6.14209 24.3479C6.6195 24.0544 7.09654 23.6428 7.69042 23.7606C7.83687 24.0255 7.84725 24.4158 8.1294 24.5541C9.13304 24.5344 9.84455 23.7706 10.6141 23.1733C10.0775 22.3717 9.64006 21.2647 10.1167 20.2956C10.4984 19.3241 11.494 18.5067 11.539 17.4329H12.3273" fill="#397657"/>
<path d="M13.7553 17.4321C13.8053 17.88 13.7319 18.3395 13.4205 18.8264C12.7878 19.689 11.9595 20.5979 12.3389 21.7335C12.6994 22.8791 14.1224 23.5737 14.0348 24.9054C14.0252 26.4808 12.2024 27.4604 12.719 29.2222L11.813 28.928C11.4528 27.3623 13.1092 26.56 13.1284 25.1112C13.3625 23.4463 11.2468 22.8293 11.3737 21.2057C11.3648 19.972 12.4461 19.189 12.9235 18.1515C13.0002 17.9198 13.0335 17.6759 13.0219 17.4321H13.7553" fill="#397657"/>
<path d="M18.7649 17.432C18.7042 17.8409 18.7782 18.2585 18.9756 18.6213C19.6086 19.6287 20.7199 20.6967 20.0269 21.999C19.2969 23.0744 18.0788 24.1227 18.5654 25.5216C19.1016 26.7456 20.2221 27.9101 19.6175 29.4279L18.7119 29.633C19.4326 28.1541 18.3517 26.6873 17.7186 25.4046C16.9483 23.5644 19.3746 22.6821 19.4134 20.9998C19.4042 19.914 18.254 19.297 18.0111 18.2985C17.5137 17.8768 16.9971 18.4653 16.4024 18.3564C15.9638 18.4452 15.2915 17.7494 15.029 18.5035C14.7169 19.609 13.2935 20.4221 13.9181 21.7334C14.5128 22.8987 15.9442 23.7501 15.4664 25.2583C15.0382 26.6668 13.6252 28.0086 14.502 29.633C14.1414 29.516 13.4688 29.7407 13.4787 29.1631C12.9233 27.1954 15.2915 26.0502 14.56 24.0833C14.2195 22.879 12.6696 22.2129 13.0109 20.7642C13.2631 19.5719 14.5935 18.7379 14.4067 17.4316H18.7649" fill="#397657"/>
<path d="M20.1737 17.4321C20.1548 17.7669 20.2221 18.0997 20.437 18.4156C21.1097 19.5121 22.279 20.7164 21.6067 22.1455C20.8467 23.2903 19.5214 24.4552 20.2613 25.963C20.7975 26.8634 21.6263 27.7631 21.4026 28.8701L20.525 29.1635C21.1097 27.0986 18.2444 25.8839 19.4437 23.8189C20.1844 22.7127 21.509 21.6748 20.7595 20.2068C20.3113 19.2975 19.3853 18.7588 19.4141 17.6225L19.4456 17.4325H20.1737" fill="#397657"/>
<path d="M21.625 17.432C21.6203 17.7252 21.6945 18.0141 21.8399 18.2684C22.4734 19.4147 23.6139 20.5005 23.1853 21.9388C23.0673 22.3801 22.7178 22.723 22.6298 23.1724C23.3713 23.7895 24.0724 24.4837 25.0561 24.5231C25.4067 24.2984 25.2118 23.2999 25.9329 23.7597L26.985 24.2891C26.9081 24.5725 26.6732 24.8277 26.4595 25.0227C26.0601 24.8273 25.6704 24.5922 25.1726 24.6111C25.0257 24.7679 24.8989 24.9443 24.91 25.1691C25.2606 25.227 25.5812 25.3741 25.8741 25.5799C25.738 25.8741 25.4743 26.0594 25.2306 26.2849L24.4122 25.9907C24.2762 26.1869 23.9925 26.3927 24.0917 26.6077C24.2762 26.6869 24.4814 26.7938 24.6171 26.9313C24.2566 27.3228 23.7991 27.5761 23.3598 27.8422C22.9808 26.5985 21.7323 25.7266 21.8395 24.2887L21.7819 24.23C21.4889 24.5617 21.5874 25.0911 21.6066 25.5212C21.9575 26.4216 22.7955 27.1178 22.9223 28.1055C22.7759 28.3596 22.4445 28.4086 22.1908 28.5163C22.2204 26.7352 19.5312 25.3853 21.256 23.5837C21.8311 22.7014 22.7955 21.8604 22.4538 20.6465C22.1032 19.4738 20.8616 18.746 20.8724 17.4316H21.625" fill="#397657"/>
<path d="M29.4128 17.432C29.4224 17.7629 29.4528 18.0475 29.324 18.3869C27.989 18.7684 27.1122 17.349 25.8168 17.5633L25.9625 18.2985C27.161 18.3379 27.9113 19.4924 29.1491 19.4425C28.9734 19.7955 29.2271 20.7252 28.448 20.3534C27.6392 20.158 27.0541 19.4425 26.1674 19.4425C26.0605 19.6395 26.1281 19.914 26.1093 20.1476C27.0445 20.2947 27.7168 21.0882 28.6517 21.2349C28.5637 21.5577 28.476 21.9187 28.2131 22.1156C27.4524 21.9295 26.8585 21.2438 26.049 21.2635L25.904 21.9384C26.6736 21.9581 27.171 22.6435 27.8625 22.8485C27.8814 23.1334 27.6288 23.3875 27.4827 23.642C26.8693 23.4566 26.4011 22.9276 25.6996 22.967C25.6896 22.7014 25.8456 22.399 25.7864 22.1156C24.9984 22.3508 24.471 21.6164 23.8875 21.1751C23.8706 19.7317 22.358 18.7838 22.2781 17.4316H29.4128" fill="#397657"/>
<path d="M3.73167 17.4324C3.72245 17.3019 3.71514 17.2115 3.71514 17.2115C4.92367 17.6822 5.98498 16.8107 7.01823 16.3609C7.28115 16.2818 7.69014 16.4192 7.80815 16.1258C7.79777 15.9007 8.20715 15.6362 7.86658 15.4794C6.35553 15.2736 5.35227 17.1046 3.80317 16.2725L3.68555 16.0373C4.00767 11.6136 6.49238 7.33618 10.6138 5.23145C14.2975 3.11668 19.9496 3.29352 23.4183 5.76004C25.2607 6.89523 27.0239 8.7652 27.9799 10.6645C28.8947 12.3283 29.3145 14.1971 29.4402 16.1845C27.8419 17.398 26.7702 15.04 25.1423 15.5678C25.2303 15.8227 25.2792 16.0868 25.4652 16.3022C26.9078 16.2922 27.9011 17.8096 29.4114 17.2115L29.4125 17.4324H22.2778C22.2626 17.1363 22.313 16.8405 22.4254 16.5663C22.9224 15.4114 22.766 13.9129 22.2205 12.836C22.0549 12.5526 21.7627 12.3279 21.4894 12.1611C21.8896 13.0133 22.3762 14.021 22.1329 15.0682C22.1048 15.8767 21.6309 16.6528 21.6255 17.4324H20.8729L20.8759 17.3297C21.1581 15.959 22.0168 14.5002 21.3149 13.0418C21.1196 12.4549 20.6822 11.7893 20.0876 11.5445C20.974 12.5631 21.3245 14.2265 20.8175 15.5976C20.5619 16.1428 20.2094 16.791 20.1744 17.432H19.4456C19.7474 15.82 20.9686 14.2948 20.1156 12.5719C19.8915 12.063 19.4437 11.5445 18.9467 11.2503L18.9167 11.2804C19.9111 12.2495 20.2129 13.8454 19.677 15.1269C19.4264 15.8786 18.8771 16.6262 18.7656 17.432H14.407C14.3907 17.3172 14.3641 17.2041 14.3274 17.0941C13.8304 15.6844 12.8164 14.2755 13.4207 12.6302C13.5867 12.1603 13.9184 11.7588 14.2098 11.3387C13.245 11.8572 12.758 12.9538 12.7776 14.0697C12.7357 15.2825 13.6286 16.3219 13.7555 17.432H13.0224C12.964 16.2845 11.935 15.3891 12.1057 14.099C12.1633 13.1496 12.4847 12.3171 13.0985 11.6032C12.2513 11.9453 11.9008 12.9245 11.6667 13.7465C11.2604 15.0651 12.2302 16.2505 12.3274 17.432H11.5391C11.5485 17.1658 11.5025 16.9006 11.4041 16.6532C10.8783 15.2929 10.6926 13.4534 11.6963 12.2491C11.1504 12.3963 10.8291 13.0805 10.6438 13.5994C10.0403 14.9276 10.8037 16.1586 10.8299 17.432L3.73167 17.4324Z" fill="#397657"/>
<path d="M17.25 6.08243L18.8291 6.17085L18.7999 6.31796L17.6305 7.43384C17.8347 7.93348 18.0395 8.43273 18.2444 8.93082C19.1312 8.41304 19.9796 7.76668 21.0512 7.69756C20.9536 8.26593 20.525 8.86325 20.5827 9.43007C21.2457 9.24435 21.8508 8.83352 22.5719 8.87213C22.1229 9.7046 21.4699 10.5371 21.4306 11.5742C20.4466 11.2031 19.433 10.7518 18.3324 10.5761C15.9838 10.1741 13.7224 10.6931 11.7828 11.6333C11.6175 10.6448 11.1405 9.78298 10.5554 8.96094C10.906 8.84356 11.3346 9.03855 11.6959 9.13778C11.998 9.22504 12.2514 9.43046 12.5731 9.48992C12.6308 8.90263 12.2906 8.325 12.0472 7.78637C12.2129 7.65895 12.4758 7.75625 12.6611 7.8161C13.4303 8.10916 14.1226 8.56903 14.8245 8.99067C15.1847 8.56903 15.3203 7.96205 15.4668 7.40411L14.269 6.31796V6.20097L15.8473 6.11216C16.1099 5.61329 16.2856 5.0847 16.5489 4.58545C16.8706 5.02601 16.9778 5.60364 17.25 6.08243Z" fill="white"/>
<path d="M17.8053 9.28302L17.66 9.42974C16.9289 9.35175 16.1594 9.44905 15.4667 9.45986C15.389 9.38148 15.2338 9.26371 15.3787 9.16564L16.4899 8.31348C16.9485 8.57913 17.4352 8.92123 17.8053 9.28302" fill="#397657"/>
<path d="M7.80815 12.3082C8.75298 11.9456 10.0392 11.3197 11.0528 11.9854C10.8379 12.2885 10.4201 12.4553 10.1168 12.719C9.62055 13.2082 9.01629 13.8048 8.65611 14.4218C7.43798 14.1766 6.46277 14.8925 5.43991 15.3033C5.05013 15.3809 4.53351 15.4203 4.21216 15.1562C5.17698 13.56 6.54042 12.092 6.19985 9.98762C6.3071 9.80151 6.49199 9.95866 6.60884 10.0174C7.35994 10.6046 7.72012 11.4174 7.80815 12.3082ZM27.0439 10.2232C26.6645 12.2198 28.0279 13.6299 28.9439 15.1566C27.8922 15.8616 26.8971 14.7743 25.9038 14.5102C25.4652 14.4423 24.9493 14.3828 24.5292 14.4515C23.9261 13.5125 23.1169 12.631 22.1325 12.1028C22.1906 11.7804 22.6388 11.7595 22.9513 11.7205C23.8185 11.6333 24.5784 11.995 25.2899 12.3673C25.4264 12.0449 25.4848 11.6819 25.5817 11.3398C25.8165 10.7622 26.2751 10.1741 26.8694 9.93009C26.9955 9.94939 27.0831 10.0869 27.0439 10.2232ZM18.9163 12.0445C18.9463 12.2105 19.1116 12.3576 19.0043 12.5437C18.4293 12.3669 17.777 12.4646 17.2211 12.6897C16.7237 13.0615 16.8018 13.826 16.9286 14.3635L17.0751 14.4816C17.3184 14.4226 17.3288 14.1098 17.5425 14.0407C17.9034 14.1291 18.4001 14.2569 18.741 14.0407C19.0428 14.0507 19.0339 14.4712 19.0624 14.6871C18.8483 15.8226 18.3709 17.0559 17.2211 17.5941C16.7433 17.8293 16.1291 17.6718 15.6713 17.5057C14.5412 16.8304 13.9077 15.4894 14.0345 14.2762C14.1226 14.0901 14.259 13.943 14.4739 14.0704C14.9305 14.3832 15.4276 13.826 15.8473 14.2164C16.3536 13.9913 16.0518 13.3658 16.0518 12.8959C15.6428 12.3669 14.9409 12.4449 14.3274 12.4843C14.0541 12.3175 14.347 12.0537 14.4143 11.8676C15.0774 10.9282 16.3447 10.9089 17.4545 11.0456C18.0203 11.1923 18.6442 11.4371 18.9163 12.0445Z" fill="white"/>
<path d="M15.5251 13.3945V13.5126C15.1941 13.4829 14.6587 13.15 14.3561 13.5709C14.1616 13.6582 14.1324 13.4331 14.152 13.3064C14.1425 13.2755 14.1396 13.243 14.1435 13.2109C14.1474 13.1788 14.158 13.1479 14.1746 13.1203C14.1911 13.0926 14.2133 13.0687 14.2397 13.0502C14.2661 13.0317 14.2961 13.019 14.3277 13.013C14.7847 12.9052 15.3014 13.0419 15.5251 13.3945M19.0042 13.2473C18.995 13.3655 19.0238 13.5022 18.8874 13.5709C18.5168 13.4242 18.0002 13.2184 17.63 13.5126C17.4151 13.0524 18.0106 13.15 18.2147 13.0134C18.5172 13.0025 18.8681 12.9937 19.0042 13.2473Z" fill="white"/>
<path d="M17.1332 15.127C16.9583 15.4988 16.3928 15.2641 16.0807 15.332C15.9746 15.2926 16.0415 15.176 16.0223 15.0976C16.3344 14.8818 16.8899 14.8532 17.1332 15.127ZM17.6006 15.9498C17.368 16.3019 17.0167 16.7417 16.5493 16.7135C16.0223 16.7525 15.9058 16.3216 15.5253 16.0672L15.4968 15.89C16.1987 15.9981 16.9683 15.8618 17.6006 15.9498Z" fill="#397657"/>
</g>
<defs>
<clipPath id="clip0_506_855">
<rect width="33" height="34" fill="white"/>
</clipPath>
</defs>
</svg>
