<svg width="50" height="50" viewBox="0 0 50 50" fill="none" xmlns="http://www.w3.org/2000/svg">
<circle cx="25" cy="25" r="24.5" stroke="black" stroke-opacity="0.15"/>
<g clip-path="url(#clip0_332_875)">
<path d="M34.3827 32.9913C23.858 38.0002 17.3262 33.8094 13.145 31.264C12.8862 31.1035 12.4465 31.3015 12.828 31.7397C14.221 33.4287 18.7861 37.4997 24.7448 37.4997C30.7076 37.4997 34.2549 34.2461 34.6987 33.6786C35.1394 33.1158 34.8281 32.8054 34.3826 32.9913H34.3827ZM37.3386 31.3589C37.0559 30.9908 35.62 30.9222 34.7163 31.0332C33.8111 31.1411 32.4526 31.6942 32.5707 32.0264C32.6313 32.1508 32.755 32.095 33.3768 32.0391C34.0003 31.9769 35.7469 31.7564 36.1108 32.2322C36.4765 32.7112 35.5538 34.9933 35.3852 35.3614C35.2224 35.7294 35.4474 35.8243 35.7533 35.5792C36.0549 35.3342 36.601 34.6996 36.9674 33.8016C37.3314 32.8987 37.5533 31.6391 37.3385 31.3589H37.3386Z" fill="#FF9900"/>
<path fill-rule="evenodd" clip-rule="evenodd" d="M27.3059 22.7705C27.3059 24.0847 27.3391 25.1808 26.6748 26.3479C26.1387 27.2969 25.2894 27.8805 24.3405 27.8805C23.0451 27.8805 22.2907 26.8936 22.2907 25.437C22.2907 22.5617 24.867 22.0398 27.3059 22.0398V22.7705ZM30.7078 30.9931C30.4848 31.1923 30.1621 31.2066 29.9107 31.0737C28.791 30.1438 28.5917 29.712 27.9749 28.8247C26.1245 30.7131 24.8149 31.2777 22.4141 31.2777C19.5768 31.2777 17.3657 29.5269 17.3657 26.0206C17.3657 23.2829 18.8509 21.4182 20.9622 20.5073C22.7937 19.7006 25.3511 19.5583 27.3059 19.3354V18.8988C27.3059 18.0969 27.3675 17.148 26.8979 16.4553C26.485 15.8338 25.6974 15.5775 25.0046 15.5775C23.7189 15.5775 22.5706 16.237 22.2907 17.6035C22.2337 17.9072 22.0108 18.2061 21.7071 18.2203L18.4332 17.8693C18.1581 17.8075 17.8545 17.5846 17.9304 17.1622C18.6848 13.1957 22.2669 12 25.4743 12C27.116 12 29.2605 12.4366 30.5559 13.6797C32.1976 15.2122 32.041 17.2571 32.041 19.4824V24.7395C32.041 26.3195 32.6957 27.0122 33.3125 27.8663C33.5307 28.1699 33.5783 28.5354 33.303 28.763C32.615 29.3371 31.3909 30.4047 30.7172 31.0026L30.7077 30.9931" fill="black"/>
<path d="M34.3827 32.9913C23.858 38.0002 17.3262 33.8094 13.145 31.264C12.8862 31.1035 12.4465 31.3015 12.828 31.7397C14.221 33.4287 18.7861 37.4997 24.7448 37.4997C30.7076 37.4997 34.2549 34.2461 34.6987 33.6786C35.1394 33.1158 34.8281 32.8054 34.3826 32.9913H34.3827ZM37.3386 31.3589C37.0559 30.9908 35.62 30.9222 34.7163 31.0332C33.8111 31.1411 32.4526 31.6942 32.5707 32.0264C32.6313 32.1508 32.755 32.095 33.3768 32.0391C34.0003 31.9769 35.7469 31.7564 36.1108 32.2322C36.4765 32.7112 35.5538 34.9933 35.3852 35.3614C35.2224 35.7294 35.4474 35.8243 35.7533 35.5792C36.0549 35.3342 36.601 34.6996 36.9674 33.8016C37.3314 32.8987 37.5533 31.6391 37.3385 31.3589H37.3386Z" fill="#FF9900"/>
<path fill-rule="evenodd" clip-rule="evenodd" d="M27.3059 22.7705C27.3059 24.0847 27.3391 25.1808 26.6748 26.3479C26.1387 27.2969 25.2894 27.8805 24.3405 27.8805C23.0451 27.8805 22.2907 26.8936 22.2907 25.437C22.2907 22.5617 24.867 22.0398 27.3059 22.0398V22.7705ZM30.7078 30.9931C30.4848 31.1923 30.1621 31.2066 29.9107 31.0737C28.791 30.1438 28.5917 29.712 27.9749 28.8247C26.1245 30.7131 24.8149 31.2777 22.4141 31.2777C19.5768 31.2777 17.3657 29.5269 17.3657 26.0206C17.3657 23.2829 18.8509 21.4182 20.9622 20.5073C22.7937 19.7006 25.3511 19.5583 27.3059 19.3354V18.8988C27.3059 18.0969 27.3675 17.148 26.8979 16.4553C26.485 15.8338 25.6974 15.5775 25.0046 15.5775C23.7189 15.5775 22.5706 16.237 22.2907 17.6035C22.2337 17.9072 22.0108 18.2061 21.7071 18.2203L18.4332 17.8693C18.1581 17.8075 17.8545 17.5846 17.9304 17.1622C18.6848 13.1957 22.2669 12 25.4743 12C27.116 12 29.2605 12.4366 30.5559 13.6797C32.1976 15.2122 32.041 17.2571 32.041 19.4824V24.7395C32.041 26.3195 32.6957 27.0122 33.3125 27.8663C33.5307 28.1699 33.5783 28.5354 33.303 28.763C32.615 29.3371 31.3909 30.4047 30.7172 31.0026L30.7077 30.9931" fill="black"/>
</g>
<defs>
<clipPath id="clip0_332_875">
<rect width="26" height="26" fill="white" transform="translate(12 12)"/>
</clipPath>
</defs>
</svg>
