<svg width="50" height="50" viewBox="0 0 50 50" fill="none" xmlns="http://www.w3.org/2000/svg">
<circle cx="25" cy="25" r="24.5" stroke="black" stroke-opacity="0.15"/>
<g clip-path="url(#clip0_559_855)">
<path d="M6 25C6 14.5071 14.5061 6 25.0003 6C35.4936 6 44 14.5071 44 25C44 35.4939 35.4936 44 25.0003 44C14.5061 44 6 35.4936 6 25" fill="#118ACB"/>
</g>
<path d="M27.997 15.4463C25.4729 15.4463 23.278 17.1696 23.278 19.9207C23.278 22.3847 25.1436 24.2289 28.2165 24.2289C30.7407 24.2289 32.9513 22.5056 32.9513 19.7545C32.9356 17.2905 31.0699 15.4463 27.997 15.4463ZM28.5614 23.5486C28.2479 23.5486 27.9657 23.2765 27.7305 22.687C27.2602 21.5684 26.9309 19.9056 26.9309 18.0161C26.9309 16.6556 27.2758 16.1417 27.6835 16.1417C27.997 16.1417 28.2792 16.4138 28.5144 17.0033C28.9847 18.1219 29.314 19.7847 29.314 21.6742C29.314 23.0196 28.9691 23.5486 28.5614 23.5486ZM23.5445 13.4963C23.1369 13.6172 23.0271 13.6777 22.9017 13.8138C22.6979 14.0254 22.6195 14.4789 22.6195 17.1393V19.7998C22.6195 23.6545 21.0517 24.9242 18.2767 24.9242C16.2386 24.9242 15 23.8661 15 22.4905C15 21.4928 15.8936 20.8731 17.5242 20.8126C17.6496 20.8126 17.7436 20.8579 17.7436 21.0091C17.7436 21.2056 17.6496 21.5079 17.6496 22.1731C17.6496 23.3975 18.1042 23.9719 18.5746 23.9719C18.8568 23.9719 19.0292 23.7149 19.0292 23.1405C19.0292 22.2789 18.9665 21.3719 18.9665 20.6312V17.1393C18.9665 14.4638 18.8411 14.0556 18.653 13.844C18.5119 13.6777 18.2767 13.5719 17.5869 13.4812C17.4144 13.451 17.336 13.3905 17.336 13.2545V13.1335C17.336 12.9824 17.3987 12.937 17.5242 12.937C18.3394 12.937 19.7504 12.9975 20.7381 12.9975C21.7258 12.9975 22.8703 12.937 23.6229 12.937C23.7483 12.937 23.811 12.9824 23.811 13.1335V13.2545C23.7953 13.3905 23.7326 13.451 23.5445 13.4963ZM41.6212 21.0393C41.5742 20.994 41.5428 20.9789 41.4958 20.9789C41.3233 20.9789 40.7432 21.78 39.6614 21.78C38.125 21.78 37.1216 20.7975 36.6983 19.4219H41.1508C41.3547 19.4219 41.4017 19.3614 41.4017 19.18C41.4017 16.8521 40.022 15.4463 37.7644 15.4463C35.3657 15.4463 33.3746 17.351 33.3746 19.8603C33.3746 22.5358 35.2873 24.2289 37.5449 24.2289C39.1597 24.2289 40.5708 23.4731 41.5585 21.6289C41.6839 21.4172 41.7309 21.2812 41.7309 21.2056C41.7309 21.1603 41.7153 21.13 41.6839 21.0847L41.6212 21.0393ZM37.4038 16.1417C37.8898 16.1417 38.2347 16.6254 38.2347 18.0765C38.2347 18.53 38.1407 18.6056 37.8428 18.6358L36.5572 18.7568C36.5102 18.4696 36.4945 18.1824 36.4945 17.8952C36.4945 16.6707 36.8864 16.1417 37.4038 16.1417Z" fill="white"/>
<path d="M27.997 15.4463C25.4729 15.4463 23.278 17.1696 23.278 19.9207C23.278 22.3847 25.1436 24.2289 28.2165 24.2289C30.7407 24.2289 32.9513 22.5056 32.9513 19.7545C32.9356 17.2905 31.0699 15.4463 27.997 15.4463ZM28.5614 23.5486C28.2479 23.5486 27.9657 23.2765 27.7305 22.687C27.2602 21.5684 26.9309 19.9056 26.9309 18.0161C26.9309 16.6556 27.2758 16.1417 27.6835 16.1417C27.997 16.1417 28.2792 16.4138 28.5144 17.0033C28.9847 18.1219 29.314 19.7847 29.314 21.6742C29.314 23.0196 28.9691 23.5486 28.5614 23.5486ZM23.5445 13.4963C23.1369 13.6172 23.0271 13.6777 22.9017 13.8138C22.6979 14.0254 22.6195 14.4789 22.6195 17.1393V19.7998C22.6195 23.6545 21.0517 24.9242 18.2767 24.9242C16.2386 24.9242 15 23.8661 15 22.4905C15 21.4928 15.8936 20.8731 17.5242 20.8126C17.6496 20.8126 17.7436 20.8579 17.7436 21.0091C17.7436 21.2056 17.6496 21.5079 17.6496 22.1731C17.6496 23.3975 18.1042 23.9719 18.5746 23.9719C18.8568 23.9719 19.0292 23.7149 19.0292 23.1405C19.0292 22.2789 18.9665 21.3719 18.9665 20.6312V17.1393C18.9665 14.4638 18.8411 14.0556 18.653 13.844C18.5119 13.6777 18.2767 13.5719 17.5869 13.4812C17.4144 13.451 17.336 13.3905 17.336 13.2545V13.1335C17.336 12.9824 17.3987 12.937 17.5242 12.937C18.3394 12.937 19.7504 12.9975 20.7381 12.9975C21.7258 12.9975 22.8703 12.937 23.6229 12.937C23.7483 12.937 23.811 12.9824 23.811 13.1335V13.2545C23.7953 13.3905 23.7326 13.451 23.5445 13.4963ZM41.6212 21.0393C41.5742 20.994 41.5428 20.9789 41.4958 20.9789C41.3233 20.9789 40.7432 21.78 39.6614 21.78C38.125 21.78 37.1216 20.7975 36.6983 19.4219H41.1508C41.3547 19.4219 41.4017 19.3614 41.4017 19.18C41.4017 16.8521 40.022 15.4463 37.7644 15.4463C35.3657 15.4463 33.3746 17.351 33.3746 19.8603C33.3746 22.5358 35.2873 24.2289 37.5449 24.2289C39.1597 24.2289 40.5708 23.4731 41.5585 21.6289C41.6839 21.4172 41.7309 21.2812 41.7309 21.2056C41.7309 21.1603 41.7153 21.13 41.6839 21.0847L41.6212 21.0393ZM37.4038 16.1417C37.8898 16.1417 38.2347 16.6254 38.2347 18.0765C38.2347 18.53 38.1407 18.6056 37.8428 18.6358L36.5572 18.7568C36.5102 18.4696 36.4945 18.1824 36.4945 17.8952C36.4945 16.6707 36.8864 16.1417 37.4038 16.1417Z" fill="white"/>
<path d="M42.186 39.3894V39.5501C42.186 39.7108 42.1361 39.759 41.9697 39.759C41.4704 39.759 40.3387 39.6947 39.1238 39.6947C38.0088 39.6947 36.977 39.759 36.3113 39.759C36.1449 39.759 36.095 39.7108 36.095 39.5501V39.3894C36.095 39.2608 36.1449 39.2126 36.2947 39.1805C36.6442 39.1162 36.7773 39.0519 36.8272 38.9394C36.9104 38.7627 36.9437 38.4734 36.9437 35.5328V31.6601H34.7969V35.5488C34.7969 38.5056 34.8302 38.7948 34.9134 38.9555C34.9633 39.0841 35.0964 39.1323 35.4459 39.1965C35.5957 39.2126 35.6456 39.2769 35.6456 39.4054V39.5661C35.6456 39.7268 35.5957 39.775 35.4293 39.775C34.7636 39.775 33.7318 39.7108 32.6167 39.7108C31.4019 39.7108 30.2702 39.775 29.7709 39.775C29.6045 39.775 29.5546 39.7268 29.5546 39.5661V39.4054C29.5546 39.2447 29.6211 39.2126 29.7543 39.1965C30.4533 39.1323 30.653 39.0841 30.7695 38.9555C30.9026 38.8109 30.9525 38.5377 30.9525 35.5488V31.6601H29.721C29.5546 31.6601 29.5047 31.6119 29.5047 31.4512V31.2262C29.5047 31.0655 29.5546 31.0173 29.721 31.0012L30.9858 30.9048C31.1855 28.6069 32.8664 27.1286 35.0964 27.1286C36.511 27.1286 37.3431 27.9802 37.3431 28.6551C37.3431 29.1854 36.8938 29.6193 35.9618 29.6836C35.812 29.6996 35.7288 29.6032 35.7288 29.4586C35.7288 29.3622 35.7621 29.1854 35.7621 29.0247C35.7621 28.1731 35.5291 27.7553 35.2629 27.7553C34.9799 27.7553 34.7469 28.1409 34.7469 29.2818C34.7469 29.7157 34.7636 30.3103 34.7969 30.9209H36.9936C37.2266 28.5587 38.8742 27 41.2873 27C42.9682 27 44 27.9642 44 28.8158C44 29.3782 43.6006 29.78 42.419 29.8603C42.2692 29.8764 42.186 29.78 42.186 29.6354C42.186 29.5068 42.2193 29.3622 42.2193 29.2336C42.2193 28.157 41.953 27.6267 41.5702 27.6267C41.1375 27.6267 40.7548 28.0284 40.7548 29.7639C40.7548 30.021 40.7714 30.4388 40.7881 30.9048H42.3857C42.5521 30.9048 42.6021 30.953 42.6021 31.1137V31.4512C42.6021 31.6119 42.5521 31.6601 42.3857 31.6601H40.7881V35.5488C40.7881 38.5538 40.838 38.8109 40.9711 38.9555C41.0876 39.0841 41.2873 39.1323 41.9863 39.1965C42.1194 39.1965 42.186 39.2287 42.186 39.3894ZM24.9613 30.6638C22.2819 30.6638 19.952 32.4957 19.952 35.4203C19.952 35.8059 20.002 36.1755 20.0852 36.529C19.4195 37.0433 18.5874 37.3164 17.722 37.3164C15.5086 37.3164 13.9608 35.6131 13.9608 32.7046C13.9608 29.796 15.0925 28.4784 16.1077 28.4784C16.8899 28.4784 17.3392 29.2336 17.3392 30.5995C17.3392 31.2262 17.2227 31.6922 17.2227 31.9172C17.2227 32.0618 17.3059 32.1422 17.4557 32.1422C19.3529 32.0618 20.002 31.3708 20.002 30.2942C20.002 28.9283 18.5541 27.7713 16.1909 27.7713C13.0622 27.7713 10 30.3906 10 34.4079C10 37.67 12.4131 40 15.4919 40C17.6721 40 19.3862 38.7787 20.2516 37.0754C20.9173 38.8269 22.6647 40 25.1943 40C27.8737 40 30.2203 38.1681 30.2203 35.2435C30.2203 32.6242 28.2232 30.6638 24.9613 30.6638ZM25.5605 39.2769C25.2276 39.2769 24.928 38.9876 24.6784 38.3609C24.1791 37.1718 23.8297 35.4042 23.8297 33.3956C23.8297 31.9493 24.1958 31.403 24.6285 31.403C24.9613 31.403 25.2609 31.6922 25.5105 32.3189C26.0098 33.508 26.3593 35.2756 26.3593 37.2843C26.3593 38.7145 25.9932 39.2769 25.5605 39.2769Z" fill="white"/>
<defs>
<clipPath id="clip0_559_855">
<rect width="38" height="38" fill="white" transform="translate(6 6)"/>
</clipPath>
</defs>
</svg>
