<svg width="50" height="50" viewBox="0 0 50 50" fill="none" xmlns="http://www.w3.org/2000/svg">
<circle cx="25" cy="25" r="24.5" stroke="black" stroke-opacity="0.15"/>
<g clip-path="url(#clip0_506_883)">
<path d="M10.3943 24.878C10.3943 16.3648 17.1858 9.46289 25.5645 9.46289C33.9426 9.46289 40.7343 16.3648 40.7343 24.878C40.7343 33.3918 33.9426 40.293 25.5645 40.293C17.1858 40.293 10.3943 33.3916 10.3943 24.878" fill="#397657"/>
<path d="M10.8413 24.8776C10.8413 16.6155 17.4326 9.91748 25.5641 9.91748C33.695 9.91748 40.2869 16.6155 40.2869 24.8776C40.2869 33.1399 33.695 39.8382 25.5641 39.8382C17.4326 39.838 10.8413 33.1399 10.8413 24.8776Z" fill="white"/>
<path d="M11.321 24.8778C11.321 16.8849 17.6979 10.4053 25.5645 10.4053C33.4306 10.4053 39.8075 16.8849 39.8075 24.8778C39.8075 32.8713 33.4304 39.3509 25.5645 39.3509C17.6976 39.3509 11.321 32.8713 11.321 24.8778" fill="#397657"/>
<path d="M16.76 24.8167C16.76 19.8939 20.687 15.9035 25.531 15.9035C30.3751 15.9035 34.3018 19.8939 34.3018 24.8167C34.3018 29.7387 30.3751 33.7289 25.531 33.7289C20.687 33.7289 16.76 29.7387 16.76 24.8167ZM26.9179 11.6795C27.1582 11.8985 27.2263 12.1866 27.2139 12.5061C27.146 12.732 27.023 12.9509 26.8253 13.1079C27.066 13.2892 27.3065 13.4775 27.3433 13.803C27.4114 14.1225 27.3185 14.4104 27.1397 14.6486C26.764 15.0806 26.166 14.9681 25.6232 14.9864L24.1901 15.0247L24.1804 14.8923L24.033 11.5854L24.0269 11.5132C24.97 11.507 26.0794 11.2592 26.9179 11.6795M29.5876 12.1458C29.3345 12.8882 29.002 13.6214 28.8226 14.4042C28.8124 14.5054 28.8387 14.6069 28.8966 14.6898C28.9545 14.7728 29.04 14.8317 29.1372 14.8555C29.2888 14.9402 29.5042 14.956 29.618 14.8555C30.1054 14.1603 30.3366 13.2957 30.6421 12.5155C31.0302 12.6537 31.3327 12.8509 31.7089 12.9949C31.3077 13.8596 31.0611 14.8777 30.5061 15.5884C30.1056 15.9455 29.4707 15.8575 28.9901 15.7384C28.4412 15.5382 27.8433 15.1814 27.6769 14.5547C27.5478 14.1257 28.1334 12.6534 28.4536 11.7737L29.5876 12.1458Z" fill="white"/>
<path d="M20.7039 16.2656L19.89 16.81C19.5862 16.6474 19.409 16.5377 19.1872 16.4344L18.2862 17.2051C18.3788 17.431 18.497 17.7063 18.5955 17.9569L17.7908 18.8709L17.7261 18.7269L16.3018 15.288L17.6026 14.1508L17.7074 14.2168C18.728 14.8499 19.7769 15.5964 20.8107 16.1942L20.7039 16.2656M20.9072 16.1396C20.48 15.0807 19.9566 13.8439 19.5695 12.8507C20.55 12.4496 21.968 11.4632 22.843 12.3812C23.0648 12.6318 23.0957 12.9824 23.1017 13.3019C23.0468 13.5083 22.9967 13.7156 22.8615 13.8846C23.154 14.2506 23.6973 14.666 24.073 15.0293L24.0268 15.0451L22.9172 15.2939C22.5225 14.9715 22.299 14.7439 21.9556 14.5047C21.8075 14.5229 21.7056 14.6112 21.5665 14.6737L21.9488 15.5635L20.9072 16.1396" fill="white"/>
<path d="M25.9564 12.262C26.0425 12.3554 26.0245 12.5502 25.9744 12.6567C25.8147 12.845 25.5187 12.8381 25.2721 12.8067C25.2901 12.5939 25.2128 12.3871 25.2283 12.1681C25.438 12.1993 25.8023 12.0925 25.9564 12.262ZM21.8877 13.1262C21.9487 13.2829 21.9524 13.5379 21.8211 13.6308L21.2109 13.8937C21.0587 13.6093 20.994 13.4143 20.8892 13.183C21.1725 13.0765 21.6591 12.6443 21.8877 13.1262ZM26.1597 13.6901C26.2086 13.9098 26.1106 14.1352 25.9008 14.1792C25.7035 14.2101 25.5559 14.1915 25.346 14.1977C25.3152 13.9718 25.2972 13.6713 25.3152 13.4833C25.5985 13.5208 26.0245 13.3644 26.1597 13.6901Z" fill="#397657"/>
<path d="M34.4819 14.9122C34.6918 15.1751 34.834 15.5008 34.9262 15.8327C34.6672 15.974 34.47 16.1339 34.2232 16.2464C34.1621 15.8579 33.9522 15.4632 33.5763 15.2693C33.3975 15.1625 33.132 15.1437 32.9289 15.2127C32.6142 15.3315 32.3433 15.6073 32.2261 15.9268C32.1213 16.2337 32.2383 16.5342 32.4114 16.7722C32.6514 17.048 32.9727 17.1926 33.3353 17.2049C33.1723 17.4772 33.0833 17.6492 32.9289 17.8627C32.3244 17.7748 31.7575 17.4365 31.4124 16.8664C31.1164 16.3842 31.0982 15.6451 31.3572 15.1375C31.6281 14.5798 32.1648 14.2227 32.7436 14.1412C33.4406 14.1162 34.0692 14.3982 34.4819 14.9122" fill="white"/>
<path d="M18.4658 15.9643C18.2916 16.1275 18.1063 16.2781 17.9113 16.415C17.7632 16.0579 17.6212 15.7384 17.4673 15.3438C17.8214 15.5353 18.1324 15.7572 18.4658 15.9643Z" fill="#397657"/>
<path d="M36.332 17.1296C36.0487 17.4178 35.6727 17.6624 35.3699 17.9379C35.8512 18.0442 36.3933 18.0254 36.8867 18.107C37.1087 18.4332 37.2257 18.7462 37.4417 19.1406L35.6292 19.0094C35.2284 19.6482 34.8648 20.2996 34.5193 20.9636C34.3038 20.6441 34.1377 20.2312 33.9276 19.8741C34.1623 19.3915 34.467 18.8809 34.7019 18.3983C34.2982 18.6523 33.9437 18.981 33.5327 19.2439L32.8924 18.3699C33.7552 17.6182 34.6861 16.948 35.5925 16.2657L35.6659 16.2388L36.332 17.1296M15.9814 16.8981C15.8177 17.2426 15.602 17.4773 15.4515 17.8062L17.5597 19.2155C17.4485 19.5348 17.2083 19.8486 17.0045 20.1551L14.8408 18.7831C14.6468 19.043 14.5077 19.3094 14.3134 19.6415C14.0298 19.4508 13.8294 19.3252 13.6016 19.1597C14.1383 18.2505 14.6468 17.399 15.2385 16.4557L15.9814 16.8981" fill="white"/>
<path d="M21.9128 25.2766C21.9166 25.4251 21.9017 25.5735 21.8685 25.7182C21.5419 26.3886 21.012 26.977 20.926 27.7483C20.55 27.9919 20.2411 28.4182 19.7052 28.2744C19.6864 28.4182 19.7297 28.6369 19.7788 28.8C19.3538 28.7817 19.0636 29.1007 18.7059 29.2512C18.515 29.1889 18.4656 28.9379 18.3919 28.7627C18.8107 28.6189 19.1128 28.1926 19.5938 28.1995C19.6495 28.0421 19.5626 27.8983 19.5381 27.7483C18.9398 27.4784 17.9907 29.0822 17.9109 27.6917C18.5087 27.6541 18.891 27.0902 19.4831 27.0339L19.5011 26.5826C18.8292 26.5137 18.3975 27.2155 17.7259 27.1463L17.5775 26.5453C18.3543 26.595 18.817 25.8875 19.5568 25.8494C19.6551 25.7182 19.6675 25.5237 19.6864 25.3421C18.8788 25.2353 18.3241 26.1442 17.4671 25.8682C17.4671 25.8682 17.4379 25.4899 17.4219 25.2764H21.9128" fill="#397657"/>
<path d="M22.8601 25.2769C22.8874 25.6105 22.8071 25.9433 22.4978 26.2826C22.0537 26.8144 21.6041 27.4848 21.9246 28.1997C22.2638 28.9883 23.3302 29.6024 22.8677 30.5859C22.6153 31.2061 22.0107 31.6762 22.0355 32.4089C21.8755 32.3399 21.7094 32.2707 21.5734 32.1459C21.5734 31.2126 22.8798 30.6299 22.2573 29.6464C22.2023 29.8403 22.1899 30.1035 22.1466 30.323C21.9304 30.893 21.4684 31.35 21.2955 31.9398C21.0063 31.8264 20.7038 31.5884 20.4633 31.3379L20.7967 31.1308C20.7597 31.0052 20.6608 30.899 20.5744 30.7925C20.3582 30.7616 20.2167 30.9054 20.0382 30.962C19.884 30.8239 19.7357 30.6986 19.6129 30.5295C19.7235 30.2095 20.5868 30.4734 20.1489 29.9471C19.8531 29.7593 19.5574 30.0286 19.2984 30.1542L18.947 29.7029C19.2491 29.5151 19.5509 29.2517 19.9266 29.3271C20.0192 29.4966 20.0258 29.7464 20.2043 29.8349C20.8393 29.8223 21.2894 29.3335 21.7763 28.9512C21.4368 28.4382 21.16 27.7297 21.4616 27.1095C21.7031 26.4877 22.3329 25.9646 22.3614 25.2773H22.8601" fill="#397657"/>
<path d="M23.7637 25.2769C23.7953 25.5635 23.7488 25.8576 23.5519 26.1692C23.1516 26.7212 22.6275 27.303 22.8675 28.0297C23.0956 28.7629 23.9959 29.2075 23.9405 30.0598C23.9344 31.068 22.7812 31.6949 23.108 32.8225L22.5349 32.6342C22.307 31.6322 23.3549 31.1187 23.367 30.1915C23.5151 29.1259 22.1766 28.731 22.2569 27.6919C22.2513 26.9024 22.9354 26.4012 23.2374 25.7372C23.2859 25.589 23.307 25.4329 23.2997 25.2769H23.7637" fill="#397657"/>
<path d="M26.9328 25.2766C26.8944 25.5383 26.9412 25.8056 27.0661 26.0377C27.4666 26.6825 28.1697 27.366 27.7312 28.1995C27.2694 28.8877 26.4988 29.5586 26.8066 30.4539C27.1459 31.2373 27.8548 31.9826 27.4722 32.954L26.8993 33.0852C27.3553 32.1388 26.6714 31.2 26.2709 30.3791C25.7835 29.2013 27.3185 28.6366 27.3431 27.56C27.3373 26.8651 26.6096 26.4702 26.456 25.8311C26.1413 25.5613 25.8144 25.9379 25.4382 25.8682C25.1607 25.925 24.7354 25.4797 24.5693 25.9624C24.3718 26.6699 23.4713 27.1903 23.8665 28.0295C24.2427 28.7753 25.1483 29.3202 24.8461 30.2854C24.5751 31.1869 23.6812 32.0456 24.2359 33.0852C24.0078 33.0103 23.5822 33.1542 23.5885 32.7845C23.2371 31.5252 24.7354 30.7922 24.2726 29.5334C24.0572 28.7627 23.0766 28.3364 23.2926 27.4092C23.4521 26.6461 24.2938 26.1124 24.1756 25.2764H26.9328" fill="#397657"/>
<path d="M27.8242 25.2769C27.8123 25.4911 27.8548 25.7041 27.9908 25.9063C28.4164 26.6081 29.1561 27.3788 28.7308 28.2934C28.25 29.0261 27.4115 29.7716 27.8796 30.7366C28.2189 31.3129 28.7432 31.8887 28.6017 32.5972L28.0465 32.785C28.4164 31.4634 26.6036 30.686 27.3624 29.3644C27.831 28.6564 28.669 27.9922 28.1948 27.0526C27.9113 26.4707 27.3254 26.1259 27.3437 25.3987L27.3636 25.2771H27.8242" fill="#397657"/>
<path d="M28.7423 25.2766C28.7393 25.4642 28.7863 25.6492 28.8782 25.8119C29.279 26.5456 30.0006 27.2404 29.7294 28.1609C29.6547 28.4434 29.4337 28.6628 29.378 28.9505C29.8471 29.3454 30.2907 29.7897 30.913 29.8149C31.1348 29.6711 31.0115 29.032 31.4677 29.3263L32.1333 29.6651C32.0847 29.8465 31.9361 30.0099 31.8009 30.1347C31.5482 30.0096 31.3016 29.8591 30.9867 29.8712C30.8938 29.9716 30.8135 30.0845 30.8206 30.2283C31.0424 30.2654 31.2452 30.3595 31.4305 30.4912C31.3444 30.6795 31.1776 30.7982 31.0234 30.9425L30.5057 30.7542C30.4196 30.8797 30.2401 31.0114 30.3028 31.1491C30.4196 31.1997 30.5494 31.2682 30.6353 31.3562C30.4072 31.6067 30.1178 31.7688 29.8398 31.9391C29.6 31.1431 28.8102 30.5851 28.878 29.6649L28.8415 29.6273C28.6562 29.8396 28.7185 30.1784 28.7306 30.4537C28.9527 31.03 29.4828 31.4755 29.5631 32.1076C29.4704 32.2702 29.2608 32.3016 29.1003 32.3706C29.119 31.2306 27.4177 30.3667 28.5088 29.2137C28.8727 28.649 29.4828 28.1108 29.2666 27.3339C29.0448 26.5834 28.2593 26.1175 28.2661 25.2764H28.7423" fill="#397657"/>
<path d="M33.6693 25.2766C33.6754 25.4884 33.6946 25.6705 33.6131 25.8877C32.7685 26.1319 32.2138 25.2235 31.3943 25.3606L31.4865 25.8311C32.2447 25.8563 32.7194 26.5952 33.5025 26.5633C33.3913 26.7892 33.5519 27.3843 33.0589 27.1463C32.5472 27.0212 32.1771 26.5633 31.6161 26.5633C31.5485 26.6894 31.5913 26.8651 31.5794 27.0146C32.171 27.1087 32.5964 27.6166 33.1878 27.7105C33.1321 27.917 33.0767 28.1481 32.9103 28.2741C32.4291 28.155 32.0533 27.7161 31.5412 27.7287L31.4495 28.1607C31.9364 28.1733 32.251 28.6119 32.6885 28.7432C32.7005 28.9255 32.5407 29.0881 32.4483 29.251C32.0601 29.1324 31.7639 28.7938 31.3201 28.819C31.3138 28.649 31.4125 28.4555 31.3751 28.2741C30.8766 28.4246 30.5429 27.9546 30.1737 27.6722C30.163 26.7484 29.2061 26.1418 29.1555 25.2764H33.6693" fill="#397657"/>
<path d="M17.422 25.2767C17.4162 25.1932 17.4115 25.1354 17.4115 25.1354C18.1761 25.4366 18.8476 24.8789 19.5013 24.591C19.6676 24.5403 19.9263 24.6283 20.001 24.4405C19.9944 24.2964 20.2534 24.1271 20.038 24.0268C19.082 23.8951 18.4473 25.0669 17.4672 24.5344L17.3928 24.3839C17.5966 21.5527 19.1686 18.8152 21.776 17.4681C24.1065 16.1147 27.6823 16.2279 29.8768 17.8064C31.0424 18.5329 32.1579 19.7297 32.7627 20.9453C33.3415 22.0101 33.6071 23.2061 33.6866 24.4781C32.6754 25.2547 31.9974 23.7456 30.9675 24.0834C31.0232 24.2465 31.0541 24.4155 31.1718 24.5534C32.0845 24.547 32.7129 25.5182 33.6683 25.1354L33.6691 25.2767H29.1553C29.1457 25.0872 29.1776 24.8979 29.2487 24.7224C29.5631 23.9833 29.4641 23.0243 29.119 22.3351C29.0142 22.1537 28.8294 22.0099 28.6565 21.9031C28.9097 22.4485 29.2175 23.0935 29.0636 23.7636C29.0458 24.2811 28.746 24.7778 28.7426 25.2767H28.2664L28.2684 25.211C28.4469 24.3337 28.9902 23.4001 28.5461 22.4668C28.4226 22.0912 28.1458 21.6651 27.7696 21.5085C28.3304 22.1604 28.5522 23.2249 28.2314 24.1024C28.0697 24.4514 27.8467 24.8663 27.8246 25.2765H27.3635C27.5544 24.2448 28.327 23.2687 27.7874 22.166C27.6456 21.8403 27.3623 21.5085 27.0478 21.3202L27.0289 21.3394C27.658 21.9597 27.8489 22.981 27.5099 23.8012C27.3513 24.2823 27.0038 24.7607 26.9333 25.2765H24.1758C24.1655 25.203 24.1486 25.1306 24.1254 25.0603C23.811 24.158 23.1695 23.2563 23.5518 22.2034C23.6568 21.9026 23.8667 21.6456 24.051 21.3768C23.4406 21.7086 23.1325 22.4104 23.1449 23.1246C23.1184 23.9008 23.6833 24.566 23.7636 25.2765H23.2998C23.2629 24.5421 22.6119 23.969 22.7198 23.1434C22.7563 22.5357 22.9596 22.0029 23.348 21.546C22.812 21.765 22.5902 22.3917 22.4421 22.9178C22.1851 23.7617 22.7986 24.5203 22.8601 25.2765H22.3614C22.3673 25.1061 22.3383 24.9364 22.276 24.778C21.9433 23.9075 21.8259 22.7302 22.4608 21.9595C22.1155 22.0536 21.9122 22.4915 21.795 22.8236C21.4132 23.6737 21.8962 24.4615 21.9127 25.2765L17.422 25.2767Z" fill="#397657"/>
<path d="M25.9744 18.0128L26.9734 18.0693L26.9549 18.1635L26.2151 18.8777C26.3442 19.1974 26.4739 19.5169 26.6035 19.8357C27.1645 19.5043 27.7012 19.0907 28.3792 19.0464C28.3175 19.4102 28.0463 19.7925 28.0828 20.1552C28.5023 20.0364 28.8851 19.7735 29.3413 19.7982C29.0572 20.3309 28.6441 20.8637 28.6193 21.5275C27.9967 21.29 27.3554 21.0011 26.6592 20.8887C25.1733 20.6314 23.7426 20.9636 22.5155 21.5653C22.4109 20.9327 22.1091 20.3811 21.739 19.855C21.9608 19.7799 22.232 19.9047 22.4605 19.9682C22.6517 20.024 22.812 20.1555 23.0155 20.1935C23.052 19.8177 22.8368 19.448 22.6828 19.1033C22.7876 19.0217 22.954 19.084 23.0712 19.1223C23.5578 19.3099 23.9958 19.6042 24.4398 19.874C24.6677 19.6042 24.7536 19.2157 24.8462 18.8586L24.0884 18.1635V18.0886L25.087 18.0318C25.2531 17.7125 25.3642 17.3742 25.5308 17.0547C25.7343 17.3366 25.8022 17.7063 25.9744 18.0128Z" fill="white"/>
<path d="M26.3259 20.0614L26.2339 20.1553C25.7714 20.1054 25.2845 20.1677 24.8463 20.1746C24.7972 20.1244 24.6989 20.0491 24.7906 19.9863L25.4937 19.4409C25.7838 19.6109 26.0917 19.8299 26.3259 20.0614" fill="#397657"/>
<path d="M13.9899 20.3241C13.6074 20.6253 13.3363 21.0639 13.4167 21.5648C13.46 21.6399 13.5028 21.7524 13.6016 21.7712C13.9097 21.7712 14.0145 21.4334 14.156 21.2263C14.3226 20.8504 14.6436 20.4429 15.0811 20.3994C15.4571 20.3747 15.7783 20.4745 16.0247 20.7753C16.4006 21.2329 16.3328 21.9721 16.1543 22.5048C15.9872 22.8995 15.7285 23.2998 15.3588 23.5571L14.6927 23.1434C15.0566 22.8871 15.4391 22.4668 15.4882 21.997C15.4882 21.828 15.4517 21.6024 15.2475 21.5834C14.8224 21.7089 14.7793 22.2286 14.4897 22.5231C14.2679 22.7552 13.9902 22.9301 13.6385 22.88C13.3117 22.8609 13.034 22.6546 12.8431 22.3914C12.4793 21.828 12.658 21.0004 12.88 20.5687C13.016 20.3241 13.1765 20.0799 13.3983 19.8916C13.5828 19.9986 13.799 20.1617 13.9899 20.3241M38.1445 20.8136C38.4647 21.3395 38.5888 22.0346 38.4219 22.6739L37.7376 22.6363C37.8305 22.2165 37.8981 21.6904 37.6082 21.3395C37.5222 21.2329 37.368 21.1699 37.2568 21.2265C36.8809 21.6525 37.2885 22.2669 37.054 22.749C36.9426 22.9687 36.7763 23.2316 36.5358 23.3312C36.1469 23.4817 35.6662 23.4066 35.3702 23.1058C34.7912 22.4918 34.5195 21.5394 34.8899 20.7377H35.6109C35.4877 21.0516 35.4021 21.4959 35.5188 21.8656C35.5801 22.0222 35.6542 22.2226 35.8335 22.279C36.4251 22.3007 36.0241 21.4395 36.1659 21.0382C36.2216 20.7377 36.3816 20.4246 36.6834 20.2865C37.2381 20.011 37.886 20.3241 38.1445 20.8136M20.001 21.997C20.5988 21.765 21.4125 21.3644 22.0538 21.7904C21.9178 21.9844 21.6535 22.0912 21.4616 22.26C21.1477 22.5731 20.7654 22.9548 20.5375 23.3497C19.7668 23.1928 19.1499 23.651 18.5028 23.9139C18.2562 23.9636 17.9293 23.9888 17.726 23.8197C18.3364 22.7982 19.199 21.8586 18.9835 20.5119C19.0514 20.3928 19.1684 20.4933 19.2423 20.5309C19.7175 20.9068 19.9453 21.4269 20.001 21.997M32.1706 20.6626C31.9306 21.9404 32.7931 22.8429 33.3727 23.82C32.7073 24.2712 32.0777 23.5754 31.4493 23.4063C31.1718 23.3628 30.8455 23.3248 30.5797 23.3688C30.1981 22.7678 29.6862 22.2036 29.0634 21.8656C29.1001 21.6592 29.3837 21.6459 29.5814 21.6209C30.13 21.5651 30.6108 21.7966 31.0609 22.0348C31.1473 21.8285 31.1842 21.5962 31.2455 21.3773C31.3941 21.0076 31.6842 20.6312 32.0602 20.475C32.1399 20.4874 32.1954 20.5754 32.1706 20.6626M27.0286 21.8282C27.0476 21.9345 27.1522 22.0287 27.0843 22.1478C26.7205 22.0346 26.3078 22.0971 25.9562 22.2412C25.6415 22.4791 25.6909 22.9684 25.7711 23.3124L25.8638 23.388C26.0177 23.3502 26.0243 23.1501 26.1595 23.1058C26.3878 23.1624 26.702 23.2442 26.9177 23.1058C27.1087 23.1123 27.1031 23.3814 27.1211 23.5195C26.9856 24.2463 26.6836 25.0356 25.9562 25.38C25.6539 25.5305 25.2653 25.4297 24.9757 25.3234C24.2607 24.8912 23.8599 24.033 23.9402 23.2566C23.9959 23.1375 24.0822 23.0433 24.2181 23.1249C24.507 23.325 24.8215 22.9684 25.087 23.2183C25.4073 23.0742 25.2164 22.6739 25.2164 22.3731C24.9577 22.0346 24.5136 22.0845 24.1255 22.1097C23.9526 22.003 24.1379 21.8342 24.1804 21.7151C24.5999 21.1138 25.4017 21.1015 26.1038 21.189C26.4618 21.2829 26.8565 21.4395 27.0286 21.8282" fill="white"/>
<path d="M24.8832 22.6924V22.7681C24.6738 22.749 24.335 22.536 24.1436 22.8054C24.0206 22.8612 24.0021 22.7171 24.0145 22.6361C24.0085 22.6163 24.0067 22.5955 24.0091 22.575C24.0116 22.5544 24.0183 22.5347 24.0287 22.5169C24.0392 22.4992 24.0533 22.4839 24.07 22.4721C24.0867 22.4603 24.1056 22.4522 24.1256 22.4483C24.4148 22.3793 24.7416 22.4668 24.8832 22.6924M27.0842 22.5983C27.0784 22.6739 27.0966 22.7614 27.0103 22.8054C26.7759 22.7115 26.449 22.5797 26.2149 22.7681C26.0789 22.4735 26.4556 22.536 26.5847 22.4485C26.7761 22.4416 26.9982 22.4359 27.0842 22.5983Z" fill="white"/>
<path d="M25.9005 23.8012C25.7898 24.0392 25.4321 23.8889 25.2346 23.9324C25.1675 23.9072 25.2098 23.8326 25.1977 23.7824C25.3951 23.6443 25.7465 23.626 25.9005 23.8012ZM26.1962 24.3278C26.0491 24.5532 25.8268 24.8346 25.5311 24.8166C25.1977 24.8416 25.124 24.5658 24.8832 24.4029L24.8652 24.2895C25.3093 24.3587 25.7962 24.2715 26.1962 24.3278Z" fill="#397657"/>
<path d="M14.6739 27.2593C15.0475 27.2573 15.4059 27.2719 15.7916 27.2628L14.9334 27.992C15.0161 28.2989 15.0876 28.6518 15.1922 29.0635L14.3413 28.462C13.9835 28.6281 13.7681 28.8317 13.3984 29.0257L13.6941 27.9918C13.4133 27.7582 13.0993 27.5366 12.8337 27.2986C13.2209 27.2885 13.5599 27.3043 13.9342 27.2966C14.1071 26.968 14.1842 26.5914 14.3413 26.2627L14.6739 27.2593ZM19.0574 32.2021C19.1318 32.3835 19.239 32.5273 19.2848 32.7996C19.0878 32.9257 18.8388 33.029 18.6136 33.1419C18.5586 32.7282 18.2006 32.3272 17.8001 32.2204C17.4674 32.1364 17.1036 32.2963 16.8573 32.5968C16.6535 32.8404 16.5917 33.1918 16.6535 33.4987C16.814 33.924 17.2578 34.2453 17.7077 34.2453L17.8371 34.2492C17.7439 34.4838 17.6328 34.7105 17.5046 34.9273C16.7583 34.9016 16.0064 34.4568 15.7286 33.7236C15.4884 33.129 15.5934 32.3583 15.9694 31.8631C16.4256 31.2747 17.1532 31.1116 17.856 31.2621C18.3298 31.394 18.7738 31.7571 19.0574 32.2021M33.4275 31.8077L33.4742 31.8542L32.3646 32.9039L32.7344 33.3576C33.0486 33.1071 33.3881 32.8407 33.724 32.5216C33.8966 32.6689 34.0357 32.8407 34.1987 33.0356C33.8662 33.3576 33.5204 33.5771 33.231 33.8842C33.3543 34.0411 33.4494 34.2191 33.6374 34.4074L34.8339 33.4048L35.3451 33.9406C34.6671 34.5949 33.9275 35.2688 33.2247 35.7915L31.1345 33.0475C31.8006 32.4833 32.3614 31.9698 32.9472 31.3745C33.1262 31.4941 33.2558 31.6503 33.4275 31.8077M21.6653 34.1192C22.0413 34.6078 22.0474 35.3654 21.8129 35.9229C21.5515 36.4901 21.0488 36.8506 20.5 36.9756C19.8348 37.0819 19.2057 36.8632 18.7247 36.3937C18.2996 35.9173 18.0652 35.2345 18.2806 34.5707C18.4718 33.8501 19.1622 33.324 19.8716 33.2363C20.6048 33.1921 21.283 33.5365 21.6653 34.1192Z" fill="white"/>
<path d="M20.8888 34.5707C21.0977 35.0654 20.8575 35.5539 20.5185 35.9046C20.303 36.0798 20.0207 36.1903 19.7374 36.0838C19.5589 35.996 19.3383 35.8356 19.2889 35.6412C19.153 35.1403 19.3784 34.6705 19.7232 34.326C19.9329 34.1503 20.2352 34.0505 20.4997 34.1755C20.6602 34.2254 20.839 34.4076 20.8888 34.5707" fill="#397657"/>
<path d="M28.25 35.3656C27.7313 35.4415 27.2359 35.5043 26.742 35.5858C26.7919 35.8329 26.7697 35.9985 26.807 36.1868C27.2695 36.1776 27.6734 36.0941 28.1051 36.0375L28.2313 36.8412C27.7921 36.9242 27.3498 36.989 26.9054 37.0356C26.9178 37.3986 26.9653 37.8432 26.9597 38.2443C26.5961 38.3009 26.2036 38.3414 25.8274 38.3162L25.6056 34.8899L25.6027 34.818C26.4327 34.7376 27.26 34.6298 28.0832 34.495C28.1175 34.752 28.1946 35.0488 28.25 35.3656M31.0785 33.8254L31.1097 33.8842L29.7553 34.5744L29.9847 35.1153C30.3978 34.9552 30.7546 34.8059 31.1651 34.5951C31.2903 34.7861 31.3762 34.9905 31.4793 35.2235C31.107 35.4252 30.7215 35.5816 30.3156 35.7627C30.391 35.9481 30.429 36.0832 30.5615 36.3805L31.9868 35.7593L32.33 36.4201C31.4983 36.8545 30.6024 37.2899 29.7828 37.5914L28.5345 34.3621C29.3295 34.0107 30.0102 33.6773 30.7364 33.2738C30.8757 33.4389 30.9567 33.6262 31.0785 33.8254M25.0971 35.7551C24.5813 35.6674 24.0891 35.5737 23.5952 35.4983C23.5677 35.7494 23.4979 35.9009 23.4772 36.0909C23.9206 36.2251 24.3301 36.2706 24.7581 36.3501L24.6377 37.1557C24.1943 37.0988 23.7534 37.0236 23.316 36.9304C23.2192 37.2798 23.1322 37.7184 23.0069 38.099C22.6431 38.0402 22.2567 37.9571 21.906 37.8165L22.7197 34.4844L22.7389 34.4155C23.5589 34.5956 24.3989 34.7528 25.1988 34.8744C25.154 35.1296 25.1384 35.437 25.0971 35.7551M37.0828 27.2647C37.4556 27.2632 37.7888 27.2733 38.1998 27.2686L37.3423 27.9979C37.4257 28.3043 37.4965 28.6572 37.6006 29.0694L36.7504 28.4674C36.3919 28.633 36.1767 28.8371 35.8068 29.0311L36.1028 27.9976C35.8221 27.7646 35.5074 27.5419 35.2433 27.304C35.6295 27.2938 35.9688 27.3097 36.3428 27.302C36.4938 26.9597 36.6018 26.6311 36.7504 26.2681L37.0828 27.2647" fill="white"/>
</g>
<defs>
<clipPath id="clip0_506_883">
<rect width="31" height="32" fill="white" transform="translate(10 9)"/>
</clipPath>
</defs>
</svg>
