<svg width="50" height="50" viewBox="0 0 50 50" fill="none" xmlns="http://www.w3.org/2000/svg">
<circle cx="25" cy="25" r="24.5" stroke="black" stroke-opacity="0.15"/>
<g clip-path="url(#clip0_332_861)">
<path d="M19.751 38.9998C22.3725 38.9998 24.5001 36.9092 24.5001 34.3332V29.6665H19.751C17.1295 29.6665 15.002 31.7572 15.002 34.3332C15.002 36.9092 17.1295 38.9998 19.751 38.9998Z" fill="#0ACF83"/>
<path d="M15.002 25.0002C15.002 22.4242 17.1295 20.3335 19.751 20.3335H24.5001V29.6668H19.751C17.1295 29.6668 15.002 27.5762 15.002 25.0002Z" fill="#A259FF"/>
<path d="M15.002 15.6667C15.002 13.0907 17.1295 11 19.751 11H24.5001V20.3333H19.751C17.1295 20.3333 15.002 18.2427 15.002 15.6667Z" fill="#F24E1E"/>
<path d="M24.5 11H29.2491C31.8705 11 33.9981 13.0907 33.9981 15.6667C33.9981 18.2427 31.8705 20.3333 29.2491 20.3333H24.5V11Z" fill="#FF7262"/>
<path d="M33.9981 25.0002C33.9981 27.5762 31.8705 29.6668 29.2491 29.6668C26.6276 29.6668 24.5 27.5762 24.5 25.0002C24.5 22.4242 26.6276 20.3335 29.2491 20.3335C31.8705 20.3335 33.9981 22.4242 33.9981 25.0002Z" fill="#1ABCFE"/>
</g>
<defs>
<clipPath id="clip0_332_861">
<rect width="19" height="28" fill="white" transform="translate(15 11)"/>
</clipPath>
</defs>
</svg>
