<svg width="50" height="50" viewBox="0 0 50 50" fill="none" xmlns="http://www.w3.org/2000/svg">
<circle cx="25" cy="25" r="24.5" stroke="black" stroke-opacity="0.15"/>
<path d="M9 25C9 15.6116 16.3869 8 25.5003 8C34.6128 8 42 15.6116 42 25C42 34.3892 34.6128 42 25.5003 42C16.3869 42 9 34.389 9 25" fill="#397657"/>
<path d="M11.6853 24.7135C11.6853 17.0217 17.8925 10.7866 25.5492 10.7866C33.2059 10.7866 39.4127 17.0217 39.4127 24.7135C39.4127 32.4042 33.2059 38.6389 25.5492 38.6389C17.8925 38.6389 11.6853 32.4042 11.6853 24.7135Z" fill="white"/>
<path d="M19.8298 25.432C19.8357 25.6641 19.8122 25.8959 19.7598 26.122C19.2436 27.1696 18.406 28.0889 18.2699 29.294C17.6756 29.6747 17.1875 30.3407 16.3403 30.116C16.3107 30.3407 16.3791 30.6825 16.4567 30.9373C15.7848 30.9087 15.3262 31.4072 14.7608 31.6424C14.459 31.545 14.381 31.1528 14.2645 30.879C14.9265 30.6543 15.4039 29.9882 16.1642 29.999C16.2522 29.7531 16.115 29.5284 16.0762 29.294C15.1306 28.8723 13.6303 31.3782 13.5042 29.2056C14.449 29.1469 15.0533 28.2657 15.9893 28.1777L16.0178 27.4727C14.9557 27.3649 14.2734 28.4615 13.2117 28.3534L12.9772 27.4144C14.205 27.492 14.9365 26.3865 16.1058 26.327C16.2611 26.122 16.2807 25.8181 16.3107 25.5344C15.0341 25.3675 14.1573 26.7877 12.8027 26.3564C12.8027 26.3564 12.7566 25.7652 12.7312 25.4316H19.8298" fill="#397657"/>
<path d="M21.3273 25.4321C21.3704 25.9534 21.2435 26.4735 20.7546 27.0036C20.0527 27.8346 19.342 28.8821 19.8486 29.9991C20.3848 31.2312 22.0704 32.1907 21.3393 33.7275C20.9403 34.6966 19.9847 35.431 20.0239 36.5759C19.7709 36.4682 19.5084 36.36 19.2935 36.165C19.2935 34.7067 21.3585 33.7962 20.3744 32.2595C20.2876 32.5626 20.268 32.9738 20.1995 33.3167C19.8578 34.2074 19.1275 34.9214 18.8542 35.843C18.3971 35.6658 17.9189 35.294 17.5388 34.9024L18.0658 34.5789C18.0073 34.3827 17.8509 34.2167 17.7144 34.0503C17.3727 34.002 17.149 34.2267 16.8669 34.3152C16.6232 34.0993 16.3887 33.9036 16.1946 33.6394C16.3695 33.1394 17.734 33.5518 17.0418 32.7294C16.5743 32.4359 16.1069 32.8568 15.6975 33.0529L15.1421 32.3479C15.6195 32.0544 16.0965 31.6428 16.6904 31.7606C16.8369 32.0255 16.8473 32.4158 17.1294 32.5541C18.133 32.5344 18.8446 31.7706 19.6141 31.1733C19.0775 30.3717 18.6401 29.2647 19.1167 28.2956C19.4984 27.3241 20.494 26.5067 20.539 25.4329H21.3273" fill="#397657"/>
<path d="M22.7553 25.4321C22.8053 25.88 22.7319 26.3395 22.4205 26.8264C21.7878 27.689 20.9595 28.5979 21.3389 29.7335C21.6994 30.8791 23.1224 31.5737 23.0348 32.9054C23.0252 34.4808 21.2024 35.4604 21.719 37.2222L20.813 36.928C20.4528 35.3623 22.1092 34.56 22.1284 33.1112C22.3625 31.4463 20.2468 30.8293 20.3737 29.2057C20.3648 27.972 21.4461 27.189 21.9235 26.1515C22.0002 25.9198 22.0335 25.6759 22.0219 25.4321H22.7553" fill="#397657"/>
<path d="M27.7649 25.432C27.7042 25.8409 27.7782 26.2585 27.9756 26.6213C28.6086 27.6287 29.7199 28.6967 29.0269 29.999C28.2969 31.0744 27.0788 32.1227 27.5654 33.5216C28.1016 34.7456 29.2221 35.9101 28.6175 37.4279L27.7119 37.633C28.4326 36.1541 27.3517 34.6873 26.7186 33.4046C25.9483 31.5644 28.3746 30.6821 28.4134 28.9998C28.4042 27.914 27.254 27.297 27.0111 26.2985C26.5137 25.8768 25.9971 26.4653 25.4024 26.3564C24.9638 26.4452 24.2915 25.7494 24.029 26.5035C23.7169 27.609 22.2935 28.4221 22.9181 29.7334C23.5128 30.8987 24.9442 31.7501 24.4664 33.2583C24.0382 34.6668 22.6252 36.0086 23.502 37.633C23.1414 37.516 22.4688 37.7407 22.4787 37.1631C21.9233 35.1954 24.2915 34.0502 23.56 32.0833C23.2195 30.879 21.6696 30.2129 22.0109 28.7642C22.2631 27.5719 23.5935 26.7379 23.4067 25.4316H27.7649" fill="#397657"/>
<path d="M29.1737 25.4321C29.1548 25.7669 29.2221 26.0997 29.437 26.4156C30.1097 27.5121 31.279 28.7164 30.6067 30.1455C29.8467 31.2903 28.5214 32.4552 29.2613 33.963C29.7975 34.8634 30.6263 35.7631 30.4026 36.8701L29.525 37.1635C30.1097 35.0986 27.2444 33.8839 28.4437 31.8189C29.1844 30.7127 30.509 29.6748 29.7595 28.2068C29.3113 27.2975 28.3853 26.7588 28.4141 25.6225L28.4456 25.4325H29.1737" fill="#397657"/>
<path d="M30.625 25.432C30.6203 25.7252 30.6945 26.0141 30.8399 26.2684C31.4734 27.4147 32.6139 28.5005 32.1853 29.9388C32.0673 30.3801 31.7178 30.723 31.6298 31.1724C32.3713 31.7895 33.0724 32.4837 34.0561 32.5231C34.4067 32.2984 34.2118 31.2999 34.9329 31.7597L35.985 32.2891C35.9081 32.5725 35.6732 32.8277 35.4595 33.0227C35.0601 32.8273 34.6704 32.5922 34.1726 32.6111C34.0257 32.7679 33.8989 32.9443 33.91 33.1691C34.2606 33.227 34.5812 33.3741 34.8741 33.5799C34.738 33.8741 34.4743 34.0594 34.2306 34.2849L33.4122 33.9907C33.2762 34.1869 32.9925 34.3927 33.0917 34.6077C33.2762 34.6869 33.4814 34.7938 33.6171 34.9313C33.2566 35.3228 32.7991 35.5761 32.3598 35.8422C31.9808 34.5985 30.7323 33.7266 30.8395 32.2887L30.7819 32.23C30.4889 32.5617 30.5874 33.0911 30.6066 33.5212C30.9575 34.4216 31.7955 35.1178 31.9223 36.1055C31.7759 36.3596 31.4445 36.4086 31.1908 36.5163C31.2204 34.7352 28.5312 33.3853 30.256 31.5837C30.8311 30.7014 31.7955 29.8604 31.4538 28.6465C31.1032 27.4738 29.8616 26.746 29.8724 25.4316H30.625" fill="#397657"/>
<path d="M38.4128 25.432C38.4224 25.7629 38.4528 26.0475 38.324 26.3869C36.989 26.7684 36.1122 25.349 34.8168 25.5633L34.9625 26.2985C36.161 26.3379 36.9113 27.4924 38.1491 27.4425C37.9734 27.7955 38.2271 28.7252 37.448 28.3534C36.6392 28.158 36.0541 27.4425 35.1674 27.4425C35.0605 27.6395 35.1281 27.914 35.1093 28.1476C36.0445 28.2947 36.7168 29.0882 37.6517 29.2349C37.5637 29.5577 37.476 29.9187 37.2131 30.1156C36.4524 29.9295 35.8585 29.2438 35.049 29.2635L34.904 29.9384C35.6736 29.9581 36.171 30.6435 36.8625 30.8485C36.8814 31.1334 36.6288 31.3875 36.4827 31.642C35.8693 31.4566 35.4011 30.9276 34.6996 30.967C34.6896 30.7014 34.8456 30.399 34.7864 30.1156C33.9984 30.3508 33.471 29.6164 32.8875 29.1751C32.8706 27.7317 31.358 26.7838 31.2781 25.4316H38.4128" fill="#397657"/>
<path d="M12.7317 25.4324C12.7224 25.3019 12.7151 25.2115 12.7151 25.2115C13.9237 25.6822 14.985 24.8107 16.0182 24.3609C16.2812 24.2818 16.6901 24.4192 16.8082 24.1258C16.7978 23.9007 17.2072 23.6362 16.8666 23.4794C15.3555 23.2736 14.3523 25.1046 12.8032 24.2725L12.6855 24.0373C13.0077 19.6136 15.4924 15.3362 19.6138 13.2314C23.2975 11.1167 28.9496 11.2935 32.4183 13.76C34.2607 14.8952 36.0239 16.7652 36.9799 18.6645C37.8947 20.3283 38.3145 22.1971 38.4402 24.1845C36.8419 25.398 35.7702 23.04 34.1423 23.5678C34.2303 23.8227 34.2792 24.0868 34.4652 24.3022C35.9078 24.2922 36.9011 25.8096 38.4114 25.2115L38.4125 25.4324H31.2778C31.2626 25.1363 31.313 24.8405 31.4254 24.5663C31.9224 23.4114 31.766 21.9129 31.2205 20.836C31.0549 20.5526 30.7627 20.3279 30.4894 20.1611C30.8896 21.0133 31.3762 22.021 31.1329 23.0682C31.1048 23.8767 30.6309 24.6528 30.6255 25.4324H29.8729L29.8759 25.3297C30.1581 23.959 31.0168 22.5002 30.3149 21.0418C30.1196 20.4549 29.6822 19.7893 29.0876 19.5445C29.974 20.5631 30.3245 22.2265 29.8175 23.5976C29.5619 24.1428 29.2094 24.791 29.1744 25.432H28.4456C28.7474 23.82 29.9686 22.2948 29.1156 20.5719C28.8915 20.063 28.4437 19.5445 27.9467 19.2503L27.9167 19.2804C28.9111 20.2495 29.2129 21.8454 28.677 23.1269C28.4264 23.8786 27.8771 24.6262 27.7656 25.432H23.407C23.3907 25.3172 23.3641 25.2041 23.3274 25.0941C22.8304 23.6844 21.8164 22.2755 22.4207 20.6302C22.5867 20.1603 22.9184 19.7588 23.2098 19.3387C22.245 19.8572 21.758 20.9538 21.7776 22.0697C21.7357 23.2825 22.6286 24.3219 22.7555 25.432H22.0224C21.964 24.2845 20.935 23.3891 21.1057 22.099C21.1633 21.1496 21.4847 20.3171 22.0985 19.6032C21.2513 19.9453 20.9008 20.9245 20.6667 21.7465C20.2604 23.0651 21.2302 24.2505 21.3274 25.432H20.5391C20.5485 25.1658 20.5025 24.9006 20.4041 24.6532C19.8783 23.2929 19.6926 21.4534 20.6963 20.2491C20.1504 20.3963 19.8291 21.0805 19.6438 21.5994C19.0403 22.9276 19.8037 24.1586 19.8299 25.432L12.7317 25.4324Z" fill="#397657"/>
<path d="M26.25 14.0824L27.8291 14.1708L27.7999 14.318L26.6305 15.4338C26.8347 15.9335 27.0395 16.4327 27.2444 16.9308C28.1312 16.413 28.9796 15.7667 30.0512 15.6976C29.9536 16.2659 29.525 16.8632 29.5827 17.4301C30.2457 17.2443 30.8508 16.8335 31.5719 16.8721C31.1229 17.7046 30.4699 18.5371 30.4306 19.5742C29.4466 19.2031 28.433 18.7518 27.3324 18.5761C24.9838 18.1741 22.7224 18.6931 20.7828 19.6333C20.6175 18.6448 20.1405 17.783 19.5554 16.9609C19.906 16.8436 20.3346 17.0385 20.6959 17.1378C20.998 17.225 21.2514 17.4305 21.5731 17.4899C21.6308 16.9026 21.2906 16.325 21.0472 15.7864C21.2129 15.6589 21.4758 15.7562 21.6611 15.8161C22.4303 16.1092 23.1226 16.569 23.8245 16.9907C24.1847 16.569 24.3203 15.9621 24.4668 15.4041L23.269 14.318V14.201L24.8473 14.1122C25.1099 13.6133 25.2856 13.0847 25.5489 12.5854C25.8706 13.026 25.9778 13.6036 26.25 14.0824Z" fill="white"/>
<path d="M26.8053 17.283L26.66 17.4297C25.9289 17.3517 25.1594 17.4491 24.4667 17.4599C24.389 17.3815 24.2338 17.2637 24.3787 17.1656L25.4899 16.3135C25.9485 16.5791 26.4352 16.9212 26.8053 17.283" fill="#397657"/>
<path d="M16.8081 20.3082C17.753 19.9456 19.0392 19.3197 20.0528 19.9854C19.8379 20.2885 19.4201 20.4553 19.1168 20.719C18.6206 21.2082 18.0163 21.8048 17.6561 22.4218C16.438 22.1766 15.4628 22.8925 14.4399 23.3033C14.0501 23.3809 13.5335 23.4203 13.2122 23.1562C14.177 21.56 15.5404 20.092 15.1998 17.9876C15.3071 17.8015 15.492 17.9587 15.6088 18.0174C16.3599 18.6046 16.7201 19.4174 16.8081 20.3082ZM36.0439 18.2232C35.6645 20.2198 37.0279 21.6299 37.9439 23.1566C36.8922 23.8616 35.8971 22.7743 34.9038 22.5102C34.4652 22.4423 33.9493 22.3828 33.5292 22.4515C32.9261 21.5125 32.1169 20.631 31.1325 20.1028C31.1906 19.7804 31.6388 19.7595 31.9513 19.7205C32.8185 19.6333 33.5784 19.995 34.2899 20.3673C34.4264 20.0449 34.4848 19.6819 34.5817 19.3398C34.8165 18.7622 35.2751 18.1741 35.8694 17.9301C35.9955 17.9494 36.0831 18.0869 36.0439 18.2232ZM27.9163 20.0445C27.9463 20.2105 28.1116 20.3576 28.0043 20.5437C27.4293 20.3669 26.777 20.4646 26.2211 20.6897C25.7237 21.0615 25.8018 21.826 25.9286 22.3635L26.0751 22.4816C26.3184 22.4226 26.3288 22.1098 26.5425 22.0407C26.9034 22.1291 27.4001 22.2569 27.741 22.0407C28.0428 22.0507 28.0339 22.4712 28.0624 22.6871C27.8483 23.8226 27.3709 25.0559 26.2211 25.5941C25.7433 25.8293 25.1291 25.6718 24.6713 25.5057C23.5412 24.8304 22.9077 23.4894 23.0345 22.2762C23.1226 22.0901 23.259 21.943 23.4739 22.0704C23.9305 22.3832 24.4276 21.826 24.8473 22.2164C25.3536 21.9913 25.0518 21.3658 25.0518 20.8959C24.6428 20.3669 23.9409 20.4449 23.3274 20.4843C23.0541 20.3175 23.347 20.0537 23.4143 19.8676C24.0774 18.9282 25.3447 18.9089 26.4545 19.0456C27.0203 19.1923 27.6442 19.4371 27.9163 20.0445Z" fill="white"/>
<path d="M24.5251 21.3945V21.5126C24.1941 21.4829 23.6587 21.15 23.3561 21.5709C23.1616 21.6582 23.1324 21.4331 23.152 21.3064C23.1425 21.2755 23.1396 21.243 23.1435 21.2109C23.1474 21.1788 23.158 21.1479 23.1746 21.1203C23.1911 21.0926 23.2133 21.0687 23.2397 21.0502C23.2661 21.0317 23.2961 21.019 23.3277 21.013C23.7847 20.9052 24.3014 21.0419 24.5251 21.3945M28.0042 21.2473C27.995 21.3655 28.0238 21.5022 27.8874 21.5709C27.5168 21.4242 27.0002 21.2184 26.63 21.5126C26.4151 21.0524 27.0106 21.15 27.2147 21.0134C27.5172 21.0025 27.8681 20.9937 28.0042 21.2473Z" fill="white"/>
<path d="M26.1332 23.127C25.9583 23.4988 25.3928 23.2641 25.0807 23.332C24.9746 23.2926 25.0415 23.176 25.0223 23.0976C25.3344 22.8818 25.8899 22.8532 26.1332 23.127ZM26.6006 23.9498C26.368 24.3019 26.0167 24.7417 25.5493 24.7135C25.0223 24.7525 24.9058 24.3216 24.5253 24.0672L24.4968 23.89C25.1987 23.9981 25.9683 23.8618 26.6006 23.9498Z" fill="#397657"/>
</svg>
